<?xml version="1.0" encoding="utf-8"?>
<!-- (c) ammap.com | SVG map of South Korea - High -->
<svg xmlns="http://www.w3.org/2000/svg" xmlns:amcharts="http://amcharts.com/ammap" xmlns:xlink="http://www.w3.org/1999/xlink" version="1.1">
	<defs>
		<style type="text/css">
			.land
			{
				fill: #CCCCCC;
				fill-opacity: 1;
				stroke:white;
				stroke-opacity: 1;
				stroke-width:0.5;
			}
		</style>

		<amcharts:ammap projection="mercator" leftLongitude="125.384458" topLatitude="38.612296" rightLongitude="131.873029" bottomLatitude="33.194027"></amcharts:ammap>

		<!-- All areas are listed in the line below. You can use this list in your script. -->
		<!--{id:"KR-11"},{id:"KR-26"},{id:"KR-27"},{id:"KR-28"},{id:"KR-29"},{id:"KR-30"},{id:"KR-31"},{id:"KR-41"},{id:"KR-42"},{id:"KR-43"},{id:"KR-44"},{id:"KR-45"},{id:"KR-46"},{id:"KR-47"},{id:"KR-48"},{id:"KR-49"},{id:"KR-50"}-->

	</defs>
	<g>
		<path id="KR-26" title="Busan" class="land" d="M361.126,544.718l0.044,0.762h3.965l1.338,1.338l0,0l1.002,1.671l-0.167,1.506l-0.898,0.319l-0.603,0.768l-0.367,1.022l0.262,1.663l-0.732,2.332l-0.866,-0.063l-0.104,0.924l-0.89,0.129l0.575,0.544l1.024,-0.352l0.313,1.628l-1.415,3.034l-0.629,-0.032l-0.341,-0.479l-0.603,1.406l0.786,1.372l-0.078,0.479h-0.446l-0.026,1.244l-0.498,0.256l-0.313,-0.448l-0.525,0.735l-0.996,0.127l-0.575,2.203l-0.76,0.159l-0.367,0.543l-1.651,-0.607l-0.604,0.096l-0.681,0.829l-1.651,-1.083l0.105,0.797l-1.624,0.224l-0.235,0.541l0.288,0.862l-0.655,0.67l1.021,0.158l0.523,1.501l-0.13,2.614l-1.179,-0.638h-0.708l-0.287,0.509l-0.918,-0.19l-0.104,-1.021l-0.21,0.638l-1.938,-0.255l0.209,-1.977l-0.707,-0.447l-0.576,0.797l-1.207,0.511l-0.313,0.573l0.235,0.383l-1.625,1.722l-0.21,1.785l-0.813,0.098l0.681,1.433l-0.706,1.146l-0.917,-2.038l-0.184,-1.531l-1.074,0.191l0.916,3.855l-0.34,0.542l-0.603,-0.127l-0.158,-1.467l-0.968,-0.349l-0.289,0.668l0.629,0.16l-0.131,0.828l-1.154,-0.128l0.683,0.924h-0.445l-0.733,0.828l0.104,-1.752l-0.733,-0.382l-0.813,-3.314l0.551,-3.028l-0.577,-0.064l-0.341,1.722l-1.153,0.766l-0.131,-1.18l0.472,-1.594l-0.418,-0.097l-0.682,2.009l-1.258,0.734l-0.027,0.859h-1.648l0.497,-3.793l0.524,-0.733l-1.05,-0.383l-0.97,4.909l-1.493,-0.51h-2.935l-1.493,-1.626l-0.236,0.701l-1.545,0.16l-1.152,1.308l-0.523,-0.064l-0.236,-0.828l0.76,-1.053l0.862,0.159l0.211,-0.637l-1.259,0.191l0.315,-2.32l0,0l0.2,-0.464l2.428,-1.001l4.286,-1.144l0.429,-4.998l2.286,-0.287l3.856,-2.428l4.143,-0.143l1.429,-1.572l0.857,-1.999l0.791,-0.198l0.977,-1.162l3.943,-2.476l1.832,0.316l1.029,-1.339l0.856,-2.714l1.714,-2.571l4.857,-0.571l0.572,-1.857l2.943,-2.706l0,0L361.126,544.718zM346.653,575.535l1.86,1.594l-0.289,1.626l1.939,1.626l-0.499,1.083h-0.891l-0.471,-1.18l-0.629,0.256l-0.498,-0.479l-0.078,-0.795l-1.311,-0.415l-1.808,-1.881l0.025,-0.477l0.813,-0.512L346.653,575.535z"/>
	</g>
</svg>