<?xml version="1.0" encoding="utf-8"?>
<!-- (c) ammap.com | SVG map of South Korea - High -->
<svg xmlns="http://www.w3.org/2000/svg" xmlns:amcharts="http://amcharts.com/ammap" xmlns:xlink="http://www.w3.org/1999/xlink" version="1.1">
	<defs>
		<style type="text/css">
			.land
			{
				fill: #CCCCCC;
				fill-opacity: 1;
				stroke:white;
				stroke-opacity: 1;
				stroke-width:0.5;
			}
		</style>

		<amcharts:ammap projection="mercator" leftLongitude="125.384458" topLatitude="38.612296" rightLongitude="131.873029" bottomLatitude="33.194027"></amcharts:ammap>

		<!-- All areas are listed in the line below. You can use this list in your script. -->
		<!--{id:"KR-11"},{id:"KR-26"},{id:"KR-27"},{id:"KR-28"},{id:"KR-29"},{id:"KR-30"},{id:"KR-31"},{id:"KR-41"},{id:"KR-42"},{id:"KR-43"},{id:"KR-44"},{id:"KR-45"},{id:"KR-46"},{id:"KR-47"},{id:"KR-48"},{id:"KR-49"},{id:"KR-50"}-->

	</defs>
	<g>
		<path id="KR-30" title="Daejeon" class="land" d="M192.048,423.476L192.356,423.646L192.356,423.646L192.841,423.558L193.818,421.286L193.818,421.286L194.428,420.64L194.428,420.64L195.811,420.82L195.487,422.123L195.487,422.123L195.419,422.76L195.419,422.76L195.425,423.018L198.277,420.368L198.277,420.368L200.769,422.859L200.769,422.859L201.007,425.477L201.663,426.219L203.43,426.63L203.113,428.254L203.883,428.463L205.128,430.644L203.883,430.954L202.326,432.512L202.326,432.512L201.391,438.116L201.391,438.116L200.146,444.344L201.312,448.082L201.312,448.082L197.966,450.26L195.788,453.063L192.05,450.883L189.871,447.146L189.871,445.277L189.248,443.721L187.691,443.721L188.002,446.835L187.379,451.816L186.445,453.996L185.2,453.996L184.266,450.883L181.775,449.948L180.218,447.769L179.906,444.344L177.727,442.476L177.416,438.428L179.596,435.937L179.283,427.218L179.283,427.218L181.798,426.639L181.798,426.639L182.709,426.596L186.134,425.039L187.068,422.235L187.396,418.957L187.087,418.922L187.087,418.922L186.859,418.604L190.805,418.188z"/>
	</g>
</svg>