<?xml version="1.0" encoding="utf-8"?>
<!-- (c) ammap.com | SVG map of South Korea - High -->
<svg xmlns="http://www.w3.org/2000/svg" xmlns:amcharts="http://amcharts.com/ammap" xmlns:xlink="http://www.w3.org/1999/xlink" version="1.1">
	<defs>
		<style type="text/css">
			.land
			{
				fill: #CCCCCC;
				fill-opacity: 1;
				stroke:white;
				stroke-opacity: 1;
				stroke-width:0.5;
			}
		</style>

		<amcharts:ammap projection="mercator" leftLongitude="125.384458" topLatitude="38.612296" rightLongitude="131.873029" bottomLatitude="33.194027"></amcharts:ammap>

		<!-- All areas are listed in the line below. You can use this list in your script. -->
		<!--{id:"KR-11"},{id:"KR-26"},{id:"KR-27"},{id:"KR-28"},{id:"KR-29"},{id:"KR-30"},{id:"KR-31"},{id:"KR-41"},{id:"KR-42"},{id:"KR-43"},{id:"KR-44"},{id:"KR-45"},{id:"KR-46"},{id:"KR-47"},{id:"KR-48"},{id:"KR-49"},{id:"KR-50"}-->

	</defs>
	<g>
		<path id="KR-42" title="Gangwon" class="land" d="M280.677,163.387L282.091,166.192L284.24,168.929L284.816,168.762L285.602,170.497L285.576,171.231L285.052,171.765L285.733,172.565L285.655,173.099L286.808,174.1L286.23,175.401L286.598,176.201L287.383,176.401L287.227,177.868L288.222,178.635L288.039,179.468L288.721,179.835L290.922,182.734L290.476,183.301L290.319,183L289.795,183.234L289.743,184.933L293.515,190.727L295.245,192.524L294.616,192.957L294.878,194.621L296.476,196.85L296.449,198.314L298.756,200.309L298.519,202.005L299.516,203.866L299.593,205.926L303,210.91L303.578,211.109L302.843,211.507L302.764,212.238L304.782,214.96L303.865,215.956L304.363,217.814L304.205,218.744L304.782,220.004L305.699,221.298L306.38,221.563L307.35,223.687L308.765,225.41L310.362,226.571L311.071,229.587L315.104,233.895L316.205,233.994L315.708,235.881L319.454,242.039L321.134,243.229L321.054,244.288L324.327,247.629L325.142,248.026L325.534,248.886L325.063,250.506L326.923,253.15L329.438,255.529L329.674,256.983L339.158,266.987L342.854,272.001L346.6,275.43L346.313,277.902L345.762,278.066L345.238,279.121L345.396,280.077L347.779,283.305L352.261,286.993L352.627,288.803L351.685,290.746L352.941,292.982L352.627,293.673L354.015,295.646L353.622,295.909L355.379,297.291L358.783,301.203L359.885,306.23L364.708,309.975L364.784,312.207L365.701,313.356L366.409,316.834L368.242,318.442L369.265,318.344L369.737,320.869L370.366,320.607L371.389,320.934L371.334,321.591L372.2,322.017L371.938,323.819L374.059,325.755L374.112,326.803L374.741,327.229L373.273,328.343L373.981,330.112L373.142,332.503L373.692,335.09L374.898,336.302L375.841,338.757L376.418,339.019L376.104,340.196L376.916,341.031L376.916,341.031L372.648,341.745L372.648,341.745L370.781,343.924L368.289,344.859L365.487,347.35L365.487,347.35L363.931,349.53L363.931,350.775L363.931,350.775L365.487,353.578L358.966,353.739L358.966,353.739L356.313,351.472L353.368,350.443L350.762,350.046L348.22,352.556L347.214,352.364L344.148,350.619L340.807,349.946L339.643,349.919L337.467,350.661L336.79,349.34L335.071,348.658L335.071,348.658L334.145,349.251L332.17,352.955L332.17,352.955L331.235,354.2L327.188,354.2L323.763,351.397L320.96,349.841L318.945,350.024L318.299,352.335L318.403,354.731L318.042,355.484L317.293,355.847L315.838,354.895L314.232,354.477L312.318,354.731L309.242,352.64L308.075,352.4L308.075,352.4L306.341,351.052L306.341,351.052L305.702,350.265L305.702,350.265L303.572,350.525L303.572,350.525L302.218,350.476L298.268,349.202L298.268,349.202L296.656,348.491L294.688,346.294L293.027,345.772L292.684,346.205L292.684,346.205L291.748,346.627L291.748,346.627L288.459,347.205L287.644,346.957L287.331,347.55L286.577,347.674L285.761,346.278L285.761,346.278L285.582,345.456L285.582,345.456L284.434,344.92L284.434,344.92L283.968,344.637L283.968,344.637L283.98,342.689L283.98,342.689L284.073,342.021L284.073,342.021L283.111,341.213L281.657,341.539L279.244,341.352L279.244,341.352L278.379,341.399L277.191,342.651L277.191,342.651L275.733,342.791L275.229,343.309L275.229,343.309L274.537,343.777L272.227,342.013L272.227,342.013L271.567,340.32L273.082,339.058L273.082,339.058L274.824,338.3L274.824,338.3L277.173,335.577L277.278,334.214L276.7,333.692L275.725,333.687L274.363,334.518L274.363,334.518L273.314,334.782L273.314,334.782L271.605,334.552L270.135,332.821L268.015,332.388L266.037,330.882L263.586,331.47L262.471,332.402L261.8,333.913L261.125,334.008L258.156,333.005L256.57,334.777L254.488,336.079L254.488,336.079L252.359,336.446L252.359,336.446L250.321,337.265L250.321,337.265L249.422,336.937L249.422,336.937L249.085,336.463L249.149,333.096L249.149,333.096L247.375,329.797L247.375,329.797L245.334,329.28L245.334,329.28L243.119,329.355L241.624,330.297L241.624,330.297L239.252,331.979L238.787,332.978L239.063,335.671L239.78,337.658L239.359,339.456L237.32,340.248L236.881,341.191L236.212,341.553L233.889,340.402L230.861,340.496L229.415,342.368L227.236,343.302L223.188,340.188L222.571,336.71L222.571,336.71L223.188,329.29L222.565,325.865L224.122,324.619L223.811,317.146L227.236,309.051L227.547,305.003L225.599,304.294L224.814,301.917L227.58,298.787L227.944,297.895L230.004,297.194L230.797,295.015L229.528,293.47L229.148,292.12L226.909,292.287L226.059,291.5L223.779,290.877L220.199,290.757L215.9,287.071L213.217,286.747L211.404,285.293L209.112,284.273L205.481,285.671L204.2,284.761L202.847,282.833L204.591,279.328L204.901,274.949L203.349,275.501L202.603,275.363L201.946,275.998L201.319,275.85L201.438,273.831L203.591,271.981L204.131,270.759L202.813,267.261L202.82,266.348L203.637,265.305L203.438,263.559L202.791,262.363L203.379,260.841L205.636,260.091L207.431,258.03L210.043,257.461L210.735,256.96L211.732,253.001L210.917,248.976L209.476,247.389L207.467,247.003L205.28,245.972L205.197,243.276L204.317,242.674L201.105,243.016L198.017,241.491L196.765,239.9L196.464,238.474L196.062,230.974L194.641,229.006L193.907,228.914L192.687,230.049L191.991,229.091L190.599,228.501L189.116,228.697L186.751,229.507L185.538,230.911L185.018,230.625L183.104,228.452L181.749,228.239L180.559,227.048L180.248,225.082L180.792,223.96L181.042,221.737L182.132,220.819L180.165,219.942L179.599,219.982L178.192,221.286L176.511,223.677L174.081,223.839L172.44,223.01L171.933,222.074L172.047,219.828L171.056,220.137L170.877,219.063L171.5,217.195L169.942,215.949L169.008,210.655L164.338,210.655L164.338,208.788L165.583,207.853L160.855,203.445L160.855,203.445L161.847,202.275L164.889,200.2L165.995,199.968L168.247,200.58L171.946,199.3L174.924,197.526L178.333,198.05L179.931,199.241L181.429,198.835L183.117,199.125L184.252,198.184L186.337,198.188L188.218,197.17L190.254,197.063L192.221,197.887L193.466,198.955L195.036,198.802L197.25,199.639L199.466,201.052L204.761,197.851L207.688,196.827L209.128,197.137L210.286,198.259L211.791,198.354L214.063,197.851L216.721,198.52L218.674,197.208L224.45,197.499L226.985,196.106L227.6,196.463L228.314,198.253L230.642,200.696L232.77,199.78L234.562,199.589L235.379,199.133L236.67,197.354L242.949,199.191L244.726,198.755L251.161,200.193L254.118,199.734L257.092,197.3L259.722,197.403L260.425,197.025L263.346,194.067L267.203,191.624L268.49,189.518L270.25,188.37L274.009,184.685L276.168,180.092L275.941,178.648L276.981,175.509L276.455,166.447L277.016,165.705z"/>
	</g>
</svg>