<?xml version="1.0" encoding="utf-8"?>
<!-- (c) ammap.com | SVG map of South Korea - High -->
<svg xmlns="http://www.w3.org/2000/svg" xmlns:amcharts="http://amcharts.com/ammap" xmlns:xlink="http://www.w3.org/1999/xlink" version="1.1">
	<defs>
		<style type="text/css">
			.land
			{
				fill: #CCCCCC;
				fill-opacity: 1;
				stroke:white;
				stroke-opacity: 1;
				stroke-width:0.5;
			}
		</style>

		<amcharts:ammap projection="mercator" leftLongitude="125.384458" topLatitude="38.612296" rightLongitude="131.873029" bottomLatitude="33.194027"></amcharts:ammap>

		<!-- All areas are listed in the line below. You can use this list in your script. -->
		<!--{id:"KR-11"},{id:"KR-26"},{id:"KR-27"},{id:"KR-28"},{id:"KR-29"},{id:"KR-30"},{id:"KR-31"},{id:"KR-41"},{id:"KR-42"},{id:"KR-43"},{id:"KR-44"},{id:"KR-45"},{id:"KR-46"},{id:"KR-47"},{id:"KR-48"},{id:"KR-49"},{id:"KR-50"}-->

	</defs>
	<g>
		<path id="KR-41" title="Gyeonggi" class="land" d="M79.105,265.799l-1.729,-1.485l-0.079,-0.595l0.838,-0.495l0.682,-1.156l-0.158,-1.188l0.368,-1.089l1.571,-1.486l0.839,0.296l1.808,-0.296l3.039,1.75h1.546l0.839,-0.661l1.074,1.188l-1.703,2.774l-1.965,1.188l-2.62,-0.33l-0.787,0.528l-1.441,0.066l-1.047,1.419L79.105,265.799zM89.69,323.951l-0.366,0.525l-0.341,-0.263l-0.209,0.426l-1.389,-0.885l-0.446,0.197l-1.518,-0.492l-0.08,-0.59l-0.812,0.165l0.209,0.753l-0.472,0.328l1.257,1.213l0.105,-0.426l0.498,0.492l0.891,-0.131l0.21,0.786l0.184,-0.426l0.418,0.033l0.419,0.557l2.07,-0.524l0.734,-1.212l-0.839,-0.525H89.69zM81.935,280.175l-0.052,-0.988l0.498,-0.89l-0.263,-0.495l-1.52,0.066l-0.68,-0.396L79,277.704l-0.079,0.593l1.389,1.482l1.861,1.021l0.551,0.758l0.34,-0.56l-0.471,-0.495L81.935,280.175zM70.485,325.852l-0.237,-0.557l-0.917,0.624l-0.079,-1.345l-0.393,-0.033l-0.289,-1.475l-0.603,-0.425l-0.498,0.262l0.183,0.459l-1.179,2.491l0.079,2.163l-0.603,0.884l1.257,-0.196l-0.209,-0.458l0.393,-0.329l0.394,1.278l1.152,-0.36l0.132,0.721l-0.655,0.328l0.367,0.393l1.755,-0.327l0.603,0.229l0.131,-0.524l0.892,0.098l0.052,-0.557l1.546,-1.31l-0.289,-0.295L70.485,325.852zM76.616,273.749l-0.366,-0.132l-1.258,1.517l-1.047,-0.363l-1.337,0.396l0.104,0.494l1.179,0.726l1.153,-0.495l0.942,0.693l-0.078,0.791l0.472,-0.198l1.388,0.527l-0.288,-0.758l0.576,-0.692l-1.075,-1.055L76.616,273.749zM159.53,204.022l-5.561,4.256l-1.001,1.827l-3.889,3.976h-2.802l-4.671,-1.869l-2.491,1.557l-2.802,1.869l-2.802,2.802l-3.425,4.982l1.868,0.934l1.869,3.737l6.295,0.289l3.358,1.89l0.623,3.114l-1.246,0.934l-0.312,1.869l-2.179,-0.623h-2.802l-0.312,3.736l-1.557,0.935l0.312,2.491l1.867,0.934l-0.311,6.54l-2.18,1.246l-1.557,-2.491l-1.557,-1.245l1.245,-4.36l-1.954,-2.464l-2.398,0.072l-0.318,2.703l-1.868,1.869l-3.467,-3.335l-0.74,0.107l-0.274,0.837l1.169,4.054l-0.485,1.865l3.486,0.83l1.246,0.934l3.425,4.983l-6.54,1.868h-2.829l-0.959,4.536l-2.997,0.176l-1.116,0.526l-1.952,1.933l-3.555,-0.528l-2.017,-1.604l-0.603,1.171l-1.074,0.099l-0.681,0.693l1.1,1.749l-0.865,4.223l1.074,1.781l0.079,1.484l-0.577,1.615l1.153,0.527l-0.052,1.253l-0.708,0.461l1.677,3.031l0.969,3.294l2.362,3.095l0,0l2.449,-1.982l1.688,-0.728l0.614,-1.573l1.495,-1.266l2.071,0.192l7.439,6.02l0,0l3.816,1.29l0,0l1.152,-0.988l1.021,-2.469l1.259,0.329l1.389,1.711l2.41,1.152l3.617,-1.612l0.628,-0.363l0.158,-3.095l0.837,-1.054l5.136,-0.395l1.102,-0.791l0.077,-2.998l1.101,-1.056l-0.028,-1.186l0.552,-0.527l1.257,-0.527l0.917,-0.989l2.331,0.527l2.621,-0.33l1.178,0.198l0.917,1.087l0.106,4.516l0.891,1.152l0.078,1.845l1.102,1.712l-1.441,4.148l0.025,1.185l0.368,0.592l1.179,-0.164l1.18,-0.757l2.46,-0.593l1.154,-0.823l0.785,1.152l0.655,2.403l-0.444,0.526l-1.756,0.625l-0.995,0.988l-0.394,2.498l1.179,0.493v0.593l-1.284,1.709l-0.629,0.461l-0.629,-0.164l-0.421,0.591l0.449,0.559l-1.678,1.577l-2.987,0.262l-3.642,2.071l-0.682,-1.216v-1.708l-3.064,0.295l-4.167,2.301l-2.385,0.099l-1.207,-0.492l-1.806,0.722l-0.524,-0.131l-2.569,-5.686l-2.41,1.25l-0.55,0.098l-0.576,-0.526l-0.314,-3.091l-0.55,-0.526l0.104,-1.775l-3.799,-3.816l0,0l-3.536,4.536l0,0l0.13,4.015l3.301,2.893l0,0l0.027,1.182l-0.709,0.79l-0.024,0.657l0,0l0.262,1.149l-0.943,0.821l0,0l-0.55,0.426l-0.29,1.074l0,0h0.81l0.418,0.591l-3.956,-0.755l-0.891,1.051l0.813,0.623l-0.393,1.511l-1.965,1.642l-0.76,-0.066l-0.471,0.689l-1.495,0.361l-0.261,0.951l0.524,0.131l0.027,0.427l-7.468,2.559l-2.934,2.231l-0.917,-0.263l0.472,0.983l-1.284,1.378l-0.577,-0.033l-0.027,-0.657l-2.279,-0.688l2.122,2.197l0.314,1.475l0.446,0.361l-0.342,2.065l-0.471,0.426l-1.101,-0.032l-0.236,0.721l0.105,0.655l1.101,0.065l0.236,0.753h-1.206l0.288,0.853l-0.603,0.163l-0.471,0.917l0.393,0.263l0.55,-0.885l0.707,-0.065l1.022,1.572l0.708,-0.752l-0.209,-0.624l0.628,-1.343l0.708,-0.655l0.864,0.688l0.576,-0.065l0.498,0.852l0.368,-0.491l0.707,0.557l-0.209,-1.245l0.995,-2.064l0.262,1.638l1.992,1.245l-0.498,0.688l-0.026,1.016l0.576,0.622l0.367,-0.852l-0.184,-0.721l0.603,-0.753l-0.341,-1.638l-2.621,-1.343l-0.236,-1.441l-0.524,-0.427l0.131,-0.82l-0.942,-0.458l-1.258,0.065l-0.969,-1.344l-1.153,-0.656l1.101,-1.147l-0.078,-0.656l3.196,-2.23l6.472,-2.231l0.996,-0.066l3.511,2.789l4.848,1.804l3.092,-0.394l1.153,2.099l1.047,0.427l0.55,0.754l1.258,-0.426l-0.864,0.819l-0.131,0.95l-1.573,-2l-0.471,0.361l-1.441,-0.853l0.157,-0.918l-0.891,0.328l-0.34,0.787l0.76,0.557l0.183,0.722l-1.101,-0.557l-0.812,0.458l0.733,1.737l-0.917,0.853l0.655,0.196l-0.707,0.196l0.314,0.492l-1.834,2.653l-0.34,-0.589l-0.97,-0.295l0.577,-0.688l-0.473,-0.655l-0.131,-2.36l-2.646,0.853l-0.341,-1.082l-0.891,0.131l-2.673,-0.884l-0.891,1.114l0.158,0.721l-1.704,0.36l0.393,1.737l0.524,-0.197l0.394,0.787l-0.917,0.786l-0.026,0.951l0.969,1.539l-1.414,0.033l-1.153,1.474l1.179,2.587l-1.074,0.95l0.995,-0.033l0.499,-0.59l0.262,0.394l1.284,-0.394l0.105,0.655l0.786,-0.164l-1.337,1.833l-0.891,0.295l0.315,0.393l0.576,-0.164l0.393,0.589l0.341,1.243l-0.524,0.523l0.838,0.786l0.394,-1.604l0.89,-0.261l0.473,-0.916l0.55,-0.033l0.079,0.327l1.363,-1.014l2.069,-3.405l2.542,0.229l0.367,-0.59l0.446,0.033l0.577,-1.572l-0.027,1.212l0.682,0.196l-0.21,0.721l0.498,0.262l-2.149,1.309l4.665,0.066l0.052,0.36l-2.123,0.229l0.944,0.556l-0.026,0.459l-0.813,-0.36l-0.34,0.818l-1.021,0.491l-1.049,-0.72l-2.017,1.93l-0.184,0.916l0.708,1.8l-0.473,4.349l-0.366,0.459l-0.236,0.032l-0.944,1.438l-0.026,0.817l0.367,0.785l3.485,-0.033l0.812,0.36l0.288,2.09l-0.497,-0.196l-0.839,0.622l0.052,0.816l0.55,0.523l1.808,-0.197l1.545,0.491l1.494,2.581l0.288,1.012l-0.655,-0.359l0.498,0.915l1.912,0.783l0.446,1.861l1.939,-0.327l1.415,0.914l0.864,4.55l0,0l0.986,-0.056l0.827,-1.208l1.638,-0.809l7.535,1.758l0.832,-0.612l0.938,0.005l3.158,-1.162l3.004,-2.065l2.578,-0.084l2.982,1.423l1.335,1.794l1.945,1.582l5.085,0.697l0,0l2.758,-0.231l0,0l1.517,-0.909l0,0l1.557,-0.35l0,0l0.699,-0.44l0,0l1.701,-1.235l2.206,0.136l0.905,-1.351l0.886,-0.394l0.165,-2.104l-0.302,-1.083l0,0l1.99,-1.591l0,0l3.087,-1.411l-0.179,-0.447l0.927,-1.142l0.05,-1.035l2.334,-2.564l0.801,1.188l1.479,-0.022l-0.272,2.065l1.596,-3.218l4.293,0.78l4.048,-3.736l2.49,-0.312l0.624,-7.784h1.557l1.557,1.868h1.869l2.656,-6.632l2.643,-0.582l0,0l0.616,-7.42l-0.623,-3.425l1.557,-1.246l-0.312,-7.473l3.426,-8.095l0.311,-4.048l-1.949,-0.709l-0.785,-2.376l2.766,-3.131l0.365,-0.892l2.06,-0.701l0.793,-2.179l-1.269,-1.545l-0.38,-1.35l-2.239,0.167l-0.851,-0.786l-2.28,-0.624l-3.58,-0.12l-4.298,-3.687l-2.684,-0.324l-1.813,-1.454l-2.292,-1.02l-3.631,1.398l-1.281,-0.91l-1.354,-1.928l1.745,-3.505l0.31,-4.379l-1.552,0.552l-0.746,-0.138l-0.657,0.635l-0.627,-0.148l0.12,-2.019l2.152,-1.85l0.541,-1.222l-1.318,-3.498l0.007,-0.914l0.816,-1.042l-0.199,-1.746l-0.647,-1.196l0.588,-1.521l2.257,-0.75l1.795,-2.061l2.613,-0.569l0.691,-0.5l0.998,-3.959l-0.816,-4.026l-1.441,-1.586l-2.009,-0.386l-2.187,-1.031l-0.083,-2.696l-0.879,-0.602l-3.212,0.341l-3.088,-1.525l-1.252,-1.59l-0.301,-1.426l-0.402,-7.5l-1.421,-1.968l-0.733,-0.092l-1.22,1.135l-0.696,-0.958l-1.393,-0.589l-1.483,0.195l-2.364,0.81l-1.213,1.404l-0.521,-0.286l-1.913,-2.173l-1.355,-0.213l-1.19,-1.191l-0.311,-1.967l0.543,-1.122l0.25,-2.223l1.09,-0.918l-1.967,-0.876l-0.566,0.04l-1.407,1.304l-1.681,2.392l-2.431,0.162l-1.64,-0.829l-0.508,-0.936l0.115,-2.247l-0.992,0.31l-0.179,-1.074l0.623,-1.868l-1.558,-1.246l-0.934,-5.294h-4.67v-1.868l1.246,-0.935l-4.728,-4.408L159.53,204.022zM93.831,274.209l-1.074,-0.791l0.026,-0.495l-2.489,-0.363l-2.097,-1.649l-0.026,-2.309l1.022,-2.079l-0.917,-0.561l-3.223,1.32l-0.079,3.399l-0.236,0.396l-1.022,-0.231l-0.262,0.396l1.861,1.714l2.725,1.45l1.022,1.451l-0.263,2.078l1.257,0.625l-0.183,0.429h0.734l-0.21,-0.758l3.04,-1.978L93.831,274.209zM107.377,277.803l0.21,-0.561l0.759,-0.197l-0.026,-0.461l-1.127,-0.462l-0.34,-0.89l0.786,-3.166l-0.864,-0.759l-0.289,-0.956l0.131,-1.221l0.97,-1.419l0.131,-1.088l-1.363,-1.683l0.158,-1.023l-0.498,-1.254l-4.506,-2.939l-2.149,-2.774l-0.995,-0.231l-0.577,0.792l-2.358,0.166l-0.838,2.014l-3.485,1.882l0.603,3.434l-0.42,2.672l0.341,3.958l2.987,0.792l0.393,0.56l-0.235,0.792l1.362,1.318l0.446,1.912l-0.158,1.483l-0.707,0.89l-3.17,0.593l0.813,0.527l0.34,1.548l-0.708,0.461l0.131,0.33l0.418,-0.066l1.258,1.185l1.258,0.198l0.34,0.626l5.345,0.362l0.027,-1.021l0.891,0.428l0.577,-0.922l2.2,0.988l0.943,-0.066l0.812,-1.647l1.364,-0.395l0.052,-0.56L107.377,277.803zM104.311,321.591l-0.917,0.131l-0.602,-0.754l-1.546,0.558l-0.393,-0.131l-0.341,0.59l0.157,0.689l-1.545,-0.131l-0.158,1.246l-0.551,0.263l0.446,0.294l0.367,1.672l-0.498,0.164l0.158,1.705l1.885,-0.033l0.315,0.393l-0.262,0.524l0.629,-0.065l0.445,-0.721l0.892,-0.393l-0.262,-0.853l1.519,-0.098v-0.492l-0.524,0.131l0.027,-0.525l-0.656,-0.426l0.734,-0.295l0.524,0.262l-0.209,-0.754l0.995,0.722l0.419,-0.426l0.262,-1.541l-0.472,-0.886L104.311,321.591z"/>
	</g>
</svg>