<?xml version="1.0" encoding="utf-8"?>
<!-- (c) ammap.com | SVG map of South Korea - High -->
<svg xmlns="http://www.w3.org/2000/svg" xmlns:amcharts="http://amcharts.com/ammap" xmlns:xlink="http://www.w3.org/1999/xlink" version="1.1">
	<defs>
		<style type="text/css">
			.land
			{
				fill: #CCCCCC;
				fill-opacity: 1;
				stroke:white;
				stroke-opacity: 1;
				stroke-width:0.5;
			}
		</style>

		<amcharts:ammap projection="mercator" leftLongitude="125.384458" topLatitude="38.612296" rightLongitude="131.873029" bottomLatitude="33.194027"></amcharts:ammap>

		<!-- All areas are listed in the line below. You can use this list in your script. -->
		<!--{id:"KR-11"},{id:"KR-26"},{id:"KR-27"},{id:"KR-28"},{id:"KR-29"},{id:"KR-30"},{id:"KR-31"},{id:"KR-41"},{id:"KR-42"},{id:"KR-43"},{id:"KR-44"},{id:"KR-45"},{id:"KR-46"},{id:"KR-47"},{id:"KR-48"},{id:"KR-49"},{id:"KR-50"}-->

	</defs>
	<g>
		<path id="KR-28" title="Incheon" class="land" d="M113.224,287.19l2.449,-1.982l1.688,-0.728l0.614,-1.573l1.495,-1.266l2.071,0.192l7.439,6.02l0,0l3.817,1.289l-0.132,1.251l0.576,0.33l0,0l-3.536,4.536l0,0l0.13,4.016l3.301,2.892l0,0l0.027,1.182l-0.709,0.79l-0.024,0.657l0,0l0.262,1.149l-0.943,0.821l0,0l-0.55,0.426l-0.29,1.074l0,0l-0.553,-0.164l-0.131,-0.197l-1.31,-0.229l0.472,-1.807l-0.682,-0.526l-0.262,0.065l0.603,0.493l-0.131,0.756l-0.603,0.36l-0.288,-2.2l-0.315,-0.132l0.052,2.267l0.419,0.23l-0.026,0.493l-1.965,2.266l-3.564,-0.493l-3.668,4.628l-3.197,0.033h-0.131l-1.258,0.098l-0.341,1.083l-0.996,-0.033l0.838,-0.263l0.524,-1.837h2.175l-0.445,0.82h2.83l3.589,-4.497l-1.336,-0.427l-2.698,-2.726l-0.944,-4.271l-0.497,2.3l-1.467,-0.099l0.366,-0.821l-0.497,-0.723l0.681,-0.099l-0.472,-0.394l0.106,-0.559l-0.814,1.282l-0.969,-0.098l-0.236,-0.394l0.367,-1.38l-0.209,-0.888l0.603,-0.033l-0.34,-0.822l0.785,-1.512l2.988,-1.184l1.231,0.394l-0.76,-0.538l-0.158,-1.139l-1.048,0.987l-1.362,0.131l0.053,-1.316l-0.734,-0.394l-0.288,-0.691l0.969,0.099l-0.157,-1.25h-0.577l-0.051,-0.824h-0.525l-0.078,-0.428l0.682,-0.295l0.052,-1.415l-2.62,1.019l-0.158,0.625l-0.393,-0.395l-0.603,0.23l-2.306,2.012l2.201,-2.078l3.904,-1.613l-0.838,-1.054l-0.734,-0.131L113.224,287.19zM87.28,288.803l1.756,0.89l0.078,0.362l0.865,-0.263l0.524,1.546l0.892,0.46l2.96,-0.427l-0.262,1.447l-2.044,-0.427l-1.861,0.625l-0.052,-0.559h-0.341l-1.021,0.954l0.367,-2.105l-1.939,-1.909L87.28,288.803zM106.879,291.962l0.76,0.724l-0.026,0.461l3.564,0.986l0.55,0.921l0.838,0.394l0.42,1.842l-2.253,1.414l-1.39,-0.066l-0.602,-0.591l-0.996,1.249l-2.123,0.954l-1.729,2.235l-4.009,2.924l-1.546,-0.197l-1.31,0.755l-0.053,-0.525l0.577,-0.328l-0.184,-1.117l-0.943,-0.657l-1.231,0.821l0.891,-0.92l-0.472,-0.723l-0.734,0.229v0.789l-0.628,-0.526l-0.235,0.756l-0.524,-0.723l-1.101,-0.099l0.864,-0.624l-0.471,-0.165l0.131,-0.953l-0.551,0.065l-0.654,-0.724l-0.184,-0.689l0.418,-0.69l1.651,-0.033l3.931,-2.794l5.554,-0.263l1.337,-0.954l0.681,-2.697L106.879,291.962zM97.053,306.592l0.105,0.821l0.786,0.263l0.786,1.281l1.102,0.525l-0.079,0.591l-0.629,-0.066l0.577,0.427l-0.708,0.493v0.689l-1.571,0.427l-0.944,-0.919l0.367,-1.248l-0.262,-0.689l-1.179,-0.296l0.813,-1.446l0.078,-0.985L97.053,306.592z"/>
	</g>
</svg>