<?xml version="1.0" encoding="utf-8"?>
<!-- (c) ammap.com | SVG map of South Korea - High -->
<svg xmlns="http://www.w3.org/2000/svg" xmlns:amcharts="http://amcharts.com/ammap" xmlns:xlink="http://www.w3.org/1999/xlink" version="1.1">
	<defs>
		<style type="text/css">
			.land
			{
				fill: #CCCCCC;
				fill-opacity: 1;
				stroke:white;
				stroke-opacity: 1;
				stroke-width:0.5;
			}
		</style>

		<amcharts:ammap projection="mercator" leftLongitude="125.384458" topLatitude="38.612296" rightLongitude="131.873029" bottomLatitude="33.194027"></amcharts:ammap>

		<!-- All areas are listed in the line below. You can use this list in your script. -->
		<!--{id:"KR-11"},{id:"KR-26"},{id:"KR-27"},{id:"KR-28"},{id:"KR-29"},{id:"KR-30"},{id:"KR-31"},{id:"KR-41"},{id:"KR-42"},{id:"KR-43"},{id:"KR-44"},{id:"KR-45"},{id:"KR-46"},{id:"KR-47"},{id:"KR-48"},{id:"KR-49"},{id:"KR-50"}-->

	</defs>
	<g>
		<path id="KR-45" title="North Jeolla" class="land" d="M128.549,470.012L129.853,469.455L131.332,470.812L135.691,469.255L142.853,465.828L142.856,457.403L144.861,456.735L147.535,454.729L151.212,455.397L154.968,457.662L156.232,457.283L158.421,459.289L158.733,463.026L161.163,463.219L161.188,464.429L161.694,465.234L164.24,465.417L165.712,464.699L168.008,464.465L169.903,463.316L171.019,463.48L172.745,465.206L178.039,464.895L177.416,462.404L181.775,462.715L181.775,462.715L184.188,460.703L185.32,462.327L185.32,462.327L188.279,467.42L188.625,470.188L190.494,474.547L191.739,474.547L191.739,474.547L194.797,472.828L194.797,472.828L195.402,472.99L195.402,472.99L195.475,475.17L195.475,475.17L196.098,477.973L199.523,478.283L202.637,477.661L203.571,475.793L203.571,475.793L203.729,473.592L204.754,473.409L204.754,473.409L206.638,472.411L209.176,473.613L210.733,474.859L213.536,472.056L213.536,469.575L213.536,469.575L213.845,469.246L214.63,468.952L215.681,471.219L215.681,471.219L216.343,471.783L216.343,471.783L218.6,472.34L218.6,472.34L219.771,472.63L219.771,472.63L221.471,473.671L221.471,473.671L221.625,474.587L224.222,474.583L224.222,474.583L224.581,473.682L224.581,473.682L225.466,473.348L225.466,473.348L228.19,471.735L228.19,471.735L229.56,471.286L229.56,471.286L230.453,471.346L232.449,473.563L235.184,471L235.184,471L238.66,476.653L239.89,479.955L239.618,482.716L238.605,484.957L238.605,484.957L236.286,486.468L234.78,489.147L234.243,491.08L232.922,491.317L231.144,492.961L229.686,492.97L229.686,492.97L227.864,494.116L227.864,494.116L226.561,494.172L226.561,494.172L225.852,493.678L225.852,493.678L225.41,493.514L225.203,494.15L225.203,494.15L225.022,494.732L225.022,494.732L224.354,495.937L224.354,495.937L223.549,498.218L220.289,501.803L218.62,502.945L217.84,507.756L217.84,507.756L217.685,509.669L216.794,510.465L216.794,510.465L215.854,511.912L213.953,516.844L213.953,516.844L213.169,521.57L213.169,521.57L211.583,524.844L211.583,524.844L211.753,527.155L211.753,527.155L213.826,527.823L214.521,528.524L214.521,528.524L214.441,530.378L214.942,531.425L214.942,531.425L216.209,533.691L216.209,533.691L215.524,537.025L215.524,537.025L216.214,538.949L216.214,538.949L217.843,539.376L217.843,539.376L217.942,539.92L217.942,539.92L217.388,543.376L213.693,546.935L212.876,548.918L212.539,550.075L213.089,552.938L210.877,555.237L210.877,555.237L210.648,555.441L210.648,555.441L207.582,552.802L204.285,550.988L204.285,550.988L203.251,550.071L199.751,548.915L199.751,548.915L197.759,549.023L197.759,549.023L196.008,550.006L193.063,553.792L192.44,554.233L191.316,554.254L191.316,554.254L188.129,553.891L185.751,554.587L185.751,554.587L179.61,554.606L178.486,553.952L178.486,553.952L177.049,552.582L175.122,553.702L175.122,553.702L171.974,552.351L170.676,553.184L170.676,553.184L169.714,554.081L169.714,554.081L168.293,555.021L166.687,555.167L166.687,555.167L164.593,554.629L164.593,554.629L162.007,552.657L162.425,549.054L161.417,546.183L161.417,546.183L159.83,546.197L159.342,545.516L159.255,544.582L160.401,543.208L160.401,543.208L160.558,540.705L159.945,538.805L158.599,537.767L156.792,537.372L156.088,537.689L155.109,539.473L154.112,540.113L153.581,542.19L153.581,542.19L153.442,543.209L153.442,543.209L152.421,543.903L150.453,543.335L150.453,543.335L149.42,542.44L149.42,542.44L146.903,537.68L145.808,536.552L142.868,534.696L139.851,534.091L138.286,535.952L137.204,535.737L137.204,535.737L135.68,535.384L135.68,535.384L133.418,536.362L132.809,537.17L132.626,538.348L132.626,538.348L132.775,541.438L132.189,542.112L132.189,542.112L130.742,543.057L130.589,543.738L130.589,543.738L130.85,544.509L130.85,544.509L130.991,545.465L130.226,547.474L127.819,548.69L127.819,548.69L124.685,549.652L123.158,551.145L123.158,551.145L121.088,551.853L120.125,551.426L120.125,551.426L119.015,551.186L118.031,551.538L116.583,553.078L112.242,553.311L112.242,553.311L111.867,551.612L110.159,551.612L108.913,547.566L107.044,545.386L106.889,542.432L106.11,539.781L104.242,538.224L104.242,538.224L102.374,537.602L102.374,537.602L100.434,537.42L100.459,537.004L100.014,536.878L99.281,537.313L98.547,537.101L101.848,531.496L102.713,528.933L103.342,528.677L103.656,527.299L103.97,527.203L104.338,528.324L105.02,528.581L105.49,528.133L104.993,527.971L105.254,527.01L107.036,525.856L108.032,525.729L109.237,526.786L109.971,525.6L111.465,524.703L114.006,525.023L114.241,526.273L114.478,525.279L115.315,524.414L115.761,522.715L116.312,522.875L116.26,521.654L116.757,522.009L117.7,521.239L119.298,521.72L121.264,523.708L121.762,524.767L121.84,524.062L121.107,522.394L121.447,521.497L120.478,520.918L120.635,520.245L121.08,520.63L121.631,519.86L120.242,519.892L120.242,519.379L119.561,518.769L118.88,518.865L118.198,518.191L117.91,519.059L117.203,519.25L116.443,518.834L115.657,519.764L114.976,519.731L115.054,519.25L114.425,518.802L114.006,519.571L112.25,519.315L109.919,519.86L109.106,519.54L107.953,520.63L107.036,520.565L106.695,519.571L106.12,520.63L104.416,519.892L103.316,517.871L102.084,518.449L101.351,516.813L101.743,515.434L102.399,514.92L102.293,514.438L101.561,514.374L101.141,513.893L102.006,513.57L102.031,513.025L103.106,513.122L103.97,512.03L105.438,511.453L108.766,507.888L110.6,506.699L111.753,507.311L113.299,505.64L114.241,505.189L115.998,502.299L117.307,500.948L117.176,497.379L116.599,496.64L117.648,495.031L119.508,495.964L124.12,495.257L128.601,496.447L130.696,498.184L131.194,500.402L132.033,501.206L132.714,500.563L131.483,500.208L131.509,498.665L132.085,497.926L131.404,495.031L127.395,492.909L124.12,490.335L122.652,490.045L124.094,488.564L127.291,487.341L130.907,487.984L131.457,487.567L132.583,487.567L133.5,486.44L133.16,485.475L133.579,484.347L135.361,483.8L136.487,482.931L136.252,482.479L134.862,482.994L133.814,482.737L132.321,483.06L130.67,484.702L127.867,484.412L125.718,485.185L122.469,484.187L121.107,485.41L115.944,485.12L115.63,481.352L116.128,478.581L114.059,477.905L111.595,478.098L111.569,477.002L109.683,475.521L110.417,474.617L113.167,474.456L113.823,474.844L115.315,474.264L116.26,474.425L116.468,475.262L117.176,474.425L117.78,474.746L122.888,473.619L124.539,472.394L127.421,473.521L128.521,472.845L129.125,471.652L129.439,470.329z"/>
	</g>
</svg>