<?xml version="1.0" encoding="utf-8"?>
<!-- (c) ammap.com | SVG map of South Korea - High -->
<svg xmlns="http://www.w3.org/2000/svg" xmlns:amcharts="http://amcharts.com/ammap" xmlns:xlink="http://www.w3.org/1999/xlink" version="1.1">
	<defs>
		<style type="text/css">
			.land
			{
				fill: #CCCCCC;
				fill-opacity: 1;
				stroke:white;
				stroke-opacity: 1;
				stroke-width:0.5;
			}
		</style>

		<amcharts:ammap projection="mercator" leftLongitude="125.384458" topLatitude="38.612296" rightLongitude="131.873029" bottomLatitude="33.194027"></amcharts:ammap>

		<!-- All areas are listed in the line below. You can use this list in your script. -->
		<!--{id:"KR-11"},{id:"KR-26"},{id:"KR-27"},{id:"KR-28"},{id:"KR-29"},{id:"KR-30"},{id:"KR-31"},{id:"KR-41"},{id:"KR-42"},{id:"KR-43"},{id:"KR-44"},{id:"KR-45"},{id:"KR-46"},{id:"KR-47"},{id:"KR-48"},{id:"KR-49"},{id:"KR-50"}-->

	</defs>
	<g>
		<path id="KR-43" title="North Chungcheong" class="land" d="M213.845,469.246L212.913,466.451L211.355,463.338L209.176,461.47L208.864,458.667L208.864,458.667L210.11,455.865L209.799,452.751L207.93,449.638L207.93,449.638L205.137,449.903L204.108,449.057L201.186,447.984L200.146,444.344L201.391,438.116L201.391,438.116L202.326,432.512L202.326,432.512L203.882,430.954L205.128,430.644L203.882,428.463L203.113,428.254L203.429,426.63L201.663,426.219L201.007,425.477L200.769,422.859L200.769,422.859L198.277,420.368L198.277,420.368L195.425,423.018L195.419,422.76L195.419,422.76L195.487,422.123L195.487,422.123L195.81,420.82L194.428,420.64L194.428,420.64L193.818,421.286L193.818,421.286L192.841,423.558L192.356,423.646L192.356,423.646L192.048,423.476L192.048,423.476L190.805,418.188L186.859,418.604L186.472,418.063L185.765,417.918L185.367,418.243L185.367,418.243L184.789,419.024L184.789,419.024L186.651,412.939L185.572,411.799L186.398,409.98L186.491,408.524L183.159,408.329L182.709,406.979L182.709,406.979L182.709,404.176L179.906,400.751L182.086,400.128L182.397,397.326L182.397,397.326L180.84,395.146L185.823,387.362L189.559,387.673L191.116,385.805L189.87,382.069L186.757,379.889L183.882,379.889L183.882,379.889L182.805,379.411L182.966,377.421L182.966,377.421L182.904,377.001L182.377,376.935L182.377,376.935L180.897,376.228L180.897,376.228L180.667,373.574L177.836,371.66L176.929,369.245L179.688,369.014L179.688,369.014L181.204,368.105L181.204,368.105L182.761,367.755L182.761,367.755L183.46,367.315L183.46,367.315L185.161,366.08L187.367,366.216L188.271,364.865L189.157,364.471L189.323,362.368L189.021,361.285L189.021,361.285L191.011,359.693L191.011,359.693L194.098,358.282L193.919,357.836L194.846,356.694L194.896,355.659L197.23,353.095L198.031,354.283L199.511,354.262L199.239,356.327L200.834,353.108L205.128,353.889L209.176,350.153L211.667,349.841L212.29,342.057L213.847,342.057L215.403,343.924L217.272,343.924L219.928,337.293L222.571,336.71L223.188,340.188L227.236,343.302L229.415,342.368L230.86,340.497L233.889,340.403L235.805,341.483L236.881,341.191L237.32,340.249L239.358,339.456L239.78,337.658L239.062,335.671L238.787,332.978L239.252,331.979L241.624,330.297L241.624,330.297L243.119,329.355L245.334,329.28L245.334,329.28L247.375,329.797L247.375,329.797L249.149,333.096L249.149,333.096L249.086,336.463L249.422,336.937L249.422,336.937L250.321,337.265L250.321,337.265L252.359,336.446L252.359,336.446L254.488,336.079L254.488,336.079L256.57,334.777L258.156,333.005L261.124,334.009L261.8,333.914L262.47,332.402L263.586,331.47L266.037,330.882L268.015,332.388L270.135,332.821L271.605,334.552L273.314,334.782L273.314,334.782L274.363,334.518L274.363,334.518L275.725,333.687L276.7,333.692L277.278,334.214L277.173,335.577L274.824,338.3L274.824,338.3L273.082,339.058L273.082,339.058L271.567,340.32L272.227,342.013L272.227,342.013L274.537,343.777L275.229,343.309L275.229,343.309L275.733,342.791L277.191,342.651L277.191,342.651L278.379,341.399L279.244,341.352L279.244,341.352L281.657,341.539L283.11,341.213L284.073,342.021L284.073,342.021L283.98,342.689L283.98,342.689L283.968,344.637L283.968,344.637L284.434,344.92L284.434,344.92L285.582,345.456L285.582,345.456L285.761,346.278L285.761,346.278L286.576,347.674L287.33,347.551L287.643,346.957L288.459,347.205L291.748,346.627L291.748,346.627L292.684,346.205L292.684,346.205L293.027,345.772L294.688,346.294L296.655,348.491L298.268,349.202L298.268,349.202L302.218,350.476L303.572,350.525L303.572,350.525L305.702,350.265L305.702,350.265L306.341,351.052L306.341,351.052L308.075,352.4L306.804,353.68L306.804,353.68L305.876,354.554L305.41,354.324L305.41,354.324L304.483,353.998L304.483,353.998L303.735,354.308L303.735,354.308L302.292,356.445L301.463,356.915L301.463,356.915L300.847,357.195L300.847,357.195L297.564,360.438L294.767,361.245L294.767,361.245L293.983,362.485L293.983,362.485L293.519,363.482L290.444,365.227L290.354,366.107L288.872,367.577L287.293,370.884L287.293,370.884L286.461,372.446L286.461,372.446L286.409,373.777L287.721,374.385L287.721,374.385L288.252,375.198L288.252,375.198L288.514,377.292L285.676,381.182L285.676,381.182L284.249,381.479L284.249,381.479L282.143,381.63L282.143,381.63L281.689,381.96L281.689,381.96L280.766,382.988L278.331,382.937L278.331,382.937L276.689,383.371L276.143,383.117L276.143,383.117L275.109,380.325L273.655,378.204L270.424,376.36L269.245,374.392L269.245,374.392L268.164,375.666L267.888,376.682L267.888,376.682L267.58,377.433L266.452,377.776L266.21,380.36L266.21,380.36L266.007,381.003L266.007,381.003L265.642,381.568L260.447,380.274L259.95,379.833L259.95,379.833L259.53,379.204L259.53,379.204L258.468,378.828L257.859,379.453L257.859,379.453L256.477,380.6L256.477,380.6L255.329,382.538L255.329,382.538L253.954,382.727L253.954,382.727L252.319,380.983L251.813,381.287L249.109,387.615L249.109,387.615L248.954,387.962L248.954,387.962L252.188,392.404L252.341,393.197L251.153,393.302L247.75,392.289L247.75,392.289L246.572,391.625L245.367,392.209L245.367,392.209L243.181,391.195L243.181,391.195L242.059,390.583L242.059,390.583L240.893,392.917L239.191,394.307L237.591,395.349L235.591,395.474L235.591,395.474L234.948,395.727L234.948,395.727L233.268,398.097L233.75,400.315L233.75,400.315L233.304,401.013L233.304,401.013L231.101,402.917L231.101,402.917L230.523,403.646L230.523,403.646L229.581,405.15L228.769,405.195L228.769,405.195L227.209,405.546L227.209,405.546L226.391,406.546L226.222,407.45L226.949,408.545L232.303,409.675L233.518,410.893L233.376,411.821L233.376,411.821L233.762,413.376L234.34,413.786L234.34,413.786L235.977,414.465L236.343,415.146L235.921,416.848L235.921,416.848L235.797,417.407L235.797,417.407L233.91,417.739L233.91,417.739L233.48,419.072L233.48,419.072L233.774,422.663L233.103,425.348L233.696,426.525L233.697,427.818L232.417,429.83L233.73,433.077L233.73,433.077L234.224,433.383L234.224,433.383L233.225,435.941L230.57,438.244L230.57,438.244L230.5,442.521L230.869,443.304L232.65,444.295L232.65,444.295L234.492,443.225L235.65,441.723L236.057,441.741L236.52,443.183L238.756,443.977L239.014,444.658L239.014,444.658L239.106,445.157L239.106,445.157L240.086,445.479L240.086,445.479L240.86,446.227L240.86,446.227L241.195,446.721L242.033,446.623L242.033,446.623L244.016,445.787L244.016,445.787L246.244,445L248.26,445.695L248.26,445.695L248.879,446.763L248.879,446.763L248.523,447.827L249.029,449.926L249.029,449.926L249.599,451.23L250.287,451.795L250.287,451.795L250.196,452.589L249.044,453.141L246.578,451.666L244.175,453.09L243.518,453.946L242.995,454.826L243.076,456.012L244.169,457.779L243.659,459.187L243.759,461.344L242.007,462.804L242.189,463.722L241.197,465.4L240.971,467.434L239.134,470.026L238.384,470.357L237.505,469.692L236.265,469.93L232.449,473.563L230.453,471.346L229.56,471.286L229.56,471.286L228.19,471.735L228.19,471.735L225.466,473.348L225.466,473.348L224.581,473.682L224.581,473.682L224.222,474.583L224.222,474.583L221.625,474.587L221.471,473.671L221.471,473.671L219.771,472.63L219.771,472.63L218.6,472.34L218.6,472.34L216.343,471.783L216.343,471.783L215.681,471.219L215.681,471.219L214.63,468.952z"/>
	</g>
</svg>