<?xml version="1.0" encoding="utf-8"?>
<!-- (c) ammap.com | SVG map of South Korea - High -->
<svg xmlns="http://www.w3.org/2000/svg" xmlns:amcharts="http://amcharts.com/ammap" xmlns:xlink="http://www.w3.org/1999/xlink" version="1.1">
	<defs>
		<style type="text/css">
			.land
			{
				fill: #CCCCCC;
				fill-opacity: 1;
				stroke:white;
				stroke-opacity: 1;
				stroke-width:0.5;
			}
		</style>

		<amcharts:ammap projection="mercator" leftLongitude="125.384458" topLatitude="38.612296" rightLongitude="131.873029" bottomLatitude="33.194027"></amcharts:ammap>

		<!-- All areas are listed in the line below. You can use this list in your script. -->
		<!--{id:"KR-11"},{id:"KR-26"},{id:"KR-27"},{id:"KR-28"},{id:"KR-29"},{id:"KR-30"},{id:"KR-31"},{id:"KR-41"},{id:"KR-42"},{id:"KR-43"},{id:"KR-44"},{id:"KR-45"},{id:"KR-46"},{id:"KR-47"},{id:"KR-48"},{id:"KR-49"},{id:"KR-50"}-->

	</defs>
	<g>
		<path id="KR-47" title="North Gyeongsang" class="land" d="M611.344,326.247l0.052,0.262l0.185,0.131l-0.185,0.034l-0.026,0.131l-0.313,-0.065l-0.079,-0.361l0.156,-0.099l0.105,0.099L611.344,326.247L611.344,326.247zM611.815,326.508l0.185,0.295l-0.341,0.228l-0.159,-0.196L611.815,326.508L611.815,326.508zM611.213,325.82l0.079,0.163l-0.158,0.165l-0.025,-0.262L611.213,325.82L611.213,325.82zM521.21,290.971l0.94,0.28l-0.734,0.38l-0.318,1.082l0.957,1.76l-0.733,2.6l0.94,0.68l-0.988,0.36l-0.845,0.96l-0.462,-0.181l-1.228,0.72l-0.749,1.899l-0.573,-0.56l-1.785,-0.58l-0.876,0.18l-1.467,-1.135l-1.594,-0.36l-0.653,-1.06l0.239,-2.44l-1.035,-1.199l0.031,-1.081l0.749,0.48l4.048,-2.081l1.402,0.08l1.435,-0.94l1.626,0.24l0.765,-0.861l0.732,0.04L521.21,290.971zM298.396,513.212L298.396,513.212l0.691,1.275l-0.467,3.045l0,0l0.787,2.368l0.895,1.291l2.114,1.687l0,0l0.939,1.081l1.382,0.7l0,0l5.868,-1.104l0,0l3.434,0.771l3.992,1.97l0,0l1.918,0.572l1.563,-0.56l3.938,-3.266l1.011,0.298l0,0l1.135,-0.438l1.802,-2.29l0,0l2.017,-1.413l0,0l2.101,0.042l0,0l1.334,0.103l1.59,0.768l0,0l1.282,0.704l0,0l2.414,0.864l0,0l0.958,-0.353l0,0l0.769,-0.789l3.913,-3.082l1.656,-0.175l0,0l0.671,0.13l0.656,-0.863l-1.351,-2.474l-0.223,-1.061l0.594,-0.493l4.146,-2.573l3.106,-1.02l1.623,0.299l2.585,-0.653l1.091,0.422l1.798,1.466l2.008,0.31l0.969,0.585l0.237,0.826l0,0l-0.424,2.836l0,0l0.287,0.771l0.729,0.334l0,0l1.972,0.649l0,0l1.424,-0.241l2.817,-1.839l1.113,-0.307l0,0l1.484,-0.011l0,0l4.878,1.729l0,0l1.758,0.423l0,0l3.007,0.221l-0.812,-0.257v-0.546l-0.63,-0.576l-0.236,-2.312l0.761,-0.385l0.498,-1.991l1.049,-0.097v-1.604l0.523,0.063l0.628,-1.348l-0.446,-1.831l1.233,-2.797l-0.132,-1.478l0.97,-0.996l-0.342,-0.804l0.264,-1.255l0.367,-0.191l-0.631,-1.897l0.971,-0.771l-0.264,-0.58l0.892,-0.899l0.341,0.192l0.236,-1.351l-0.524,-0.772l1.128,-1.513l-0.184,-1.352l0.681,-0.547l0.053,-1.093l0.785,-0.999l-1.598,-0.322l0.209,-0.805l0.891,-0.259l-0.444,-1.318l0.864,-0.741l-1.467,-2.351l-0.053,-0.87l1.44,-0.774l0.682,-1.675l0.811,-0.193l-0.183,-0.516l0.786,-1.45l-0.366,-1.193l1.389,-1.225l-0.026,-0.87l1.703,-2.258l-0.681,-0.936l0.498,-0.419l0.052,-0.42l-0.55,-0.354l0.394,-0.161l0.235,-1.128l-1.311,-2.583l0.104,-1.162l-0.969,-0.291l-0.211,-0.774l-1.229,0.291l-0.027,0.936l-0.892,1.355l-3.064,3.323l-0.053,1.323l-4.165,2.483l-0.235,1.226l-0.815,0.257l-2.539,-0.999l-0.421,-0.773l0.709,-0.839l-0.55,-0.516l-2.333,0.613l0.184,-0.743l0.734,-0.354l0.443,-0.808l1.39,0.323l0.892,-0.098l-0.025,-0.419l-2.595,-0.936l-1.679,1.162l-0.994,-1.646l0.654,-2.323h1.311l0.497,-0.774l1.652,-0.582l-0.184,-1.45l1.206,-1.066l0.103,-0.581l0.079,-0.969l-3.011,-2.487l-0.474,-1.131l0.628,-1.68l-0.024,-1.229l-0.604,-1.971l-0.184,-0.388l-1.206,-0.227l-0.838,-1.584l0.21,-0.711l0.838,-0.227l0.34,-1.293l-0.444,-1.294l0.444,-1.003l-1.23,-1.455l0.289,-1.941l0.523,-0.55l-0.682,-1.586l0.446,-0.259l0.287,-3.659l-0.261,-1.229l0.891,-1.846l-0.08,-0.972l1.679,-2.884l0.209,-1.037h0.471l1.65,-2.398l0.577,-1.913l-0.289,-1.686l0.421,-2.757l-0.369,-1.85l1.076,-0.974l0.105,-1.785l0.603,-0.227l-0.471,-0.778h-0.395l-0.288,-4.611l-2.122,-2.403l-0.577,-1.234l-0.184,-1.787l0.604,-0.293l-0.393,-2.502l0.471,-1.854l1.075,-1.203l0.837,-2.601l1.181,-0.977l1.31,0.065l0.394,-1.757l0.865,-0.652l-0.552,-2.57l0.552,-0.521l-0.028,-0.911l-0.812,-1.531l-0.104,-1.302l1.046,-1.107l-1.438,-2.378l-0.577,-3.226l-0.891,-1.043l-0.104,-1.01l-1.677,-1.858l-0.84,-2.414l0.235,-0.62l-0.628,-1.271l-0.077,-0.75l0.549,-0.554l-0.522,-1.337l0.548,-4.244l-1.178,-3.951l1.048,-1.861l-0.052,-1.405l-0.919,-2.777l0.683,-0.523l-0.393,-1.275l0.208,-1.242l0.63,-0.425l0.552,0.359l0.418,-0.294l-0.604,-1.046l-2.855,-2.093l-0.105,-0.622l-1.676,-1.472l-0.185,-1.177l0.551,-0.834l0,0l-4.268,0.714l0,0l-1.867,2.18l-2.492,0.934l-2.802,2.491l0,0l-1.557,2.18v1.246l0,0l1.557,2.802l-6.521,0.161l0,0l-2.652,-2.267l-2.945,-1.029l-2.606,-0.397l-2.542,2.51l-1.006,-0.192l-3.065,-1.745l-3.342,-0.673l-1.164,-0.027l-2.176,0.742l-0.677,-1.32l-1.719,-0.682l0,0l-0.927,0.594l-1.975,3.703l0,0l-0.935,1.245h-4.048l-3.425,-2.802l-2.803,-1.557l-2.015,0.184l-0.646,2.311l0.104,2.396l-0.361,0.753l-0.749,0.363l-1.455,-0.952l-1.605,-0.418l-1.914,0.255l-3.076,-2.091l-1.167,-0.24l0,0l-1.271,1.28l0,0l-0.928,0.874l-0.466,-0.229l0,0l-0.926,-0.326l0,0l-0.749,0.31l0,0l-1.442,2.136l-0.83,0.471l0,0l-0.616,0.28l0,0l-3.283,3.244l-2.797,0.807l0,0l-0.784,1.24l0,0l-0.464,0.997l-3.074,1.744l-0.089,0.88l-1.482,1.469l-1.579,3.308l0,0l-0.833,1.562l0,0l-0.052,1.331l1.312,0.609l0,0l0.531,0.813l0,0l0.262,2.095l-2.838,3.889l0,0l-1.428,0.297l0,0l-2.105,0.152l0,0l-0.454,0.33l0,0l-0.923,1.028l-2.436,-0.052l0,0l-1.641,0.435l-0.547,-0.254l0,0l-1.034,-2.793l-1.454,-2.121l-3.23,-1.843l-1.18,-1.968l0,0l-1.081,1.273l-0.276,1.017l0,0l-0.309,0.75l-1.128,0.344l-0.241,2.583l0,0l-0.204,0.643l0,0l-0.365,0.565l-5.194,-1.294l-0.497,-0.441l0,0l-0.42,-0.628l0,0l-1.063,-0.376l-0.609,0.625l0,0l-1.382,1.146l0,0l-1.148,1.938l0,0l-1.375,0.189l0,0l-1.635,-1.745l-0.506,0.305l-2.704,6.328l0,0l-0.156,0.347l0,0l3.235,4.442l0.152,0.792l-1.188,0.105l-3.403,-1.013l0,0l-1.178,-0.664l-1.206,0.584l0,0l-2.186,-1.014l0,0l-1.122,-0.613l0,0l-1.166,2.334l-1.702,1.39l-1.6,1.042l-2,0.125l0,0l-0.643,0.253l0,0l-1.68,2.37l0.482,2.219l0,0l-0.446,0.697l0,0l-2.203,1.904l0,0l-0.578,0.729l0,0l-0.942,1.505l-0.812,0.045l0,0l-1.56,0.351l0,0l-0.817,1l-0.17,0.903l0.727,1.096l5.354,1.13l1.215,1.218l-0.143,0.929l0,0l0.386,1.555l0.578,0.41l0,0l1.637,0.679l0.367,0.682l-0.422,1.701l0,0l-0.124,0.56l0,0l-1.888,0.332l0,0l-0.429,1.333l0,0l0.294,3.591l-0.672,2.685l0.593,1.178l0.001,1.293l-1.28,2.012l1.313,3.247l0,0l0.494,0.306l0,0l-0.999,2.558l-2.655,2.304l0,0l-0.069,4.276l0.368,0.783l1.781,0.991l0,0l1.842,-1.07l1.158,-1.502l0.407,0.018l0.462,1.441l2.236,0.795l0.258,0.682l0,0l0.092,0.499l0,0l0.98,0.321l0,0l0.774,0.748l0,0l0.335,0.493l0.837,-0.097l0,0l1.983,-0.836l0,0l2.228,-0.787l2.016,0.695l0,0l0.619,1.067l0,0l-0.355,1.064l0.505,2.099l0,0l0.57,1.305l0.688,0.564l0,0l-0.09,0.794l-1.151,0.552l-2.467,-1.476l-2.402,1.423l-1.18,1.738l0.081,1.186l1.094,1.768l-0.511,1.406l0.101,2.158l-1.752,1.46l0.182,0.918l-0.992,1.679l-0.227,2.033l-1.836,2.593l-0.75,0.33l-0.879,-0.664l-1.24,0.237l-1.081,1.07l0,0l3.477,5.653l1.23,3.302l-0.272,2.761l-1.012,2.241l0,0l0.128,1.933l0.571,0.865l1.136,0.895l1.56,-0.012l0,0l0.706,0.364l0,0l0.308,2.603l0.942,0.563l0,0l2.138,0.328l0,0l1.773,0.215l0.583,1.126l1.149,0.634l0,0l4.434,0.782l0,0l2.547,-0.265l0,0l1.488,0.751l0,0l1.54,0.746l0.491,0.737l0.778,2.869l0,0l0.659,0.494l0,0l2.061,0.987l0.66,1.147l-0.232,0.61l2.516,1.49l0.94,1.787l-0.245,2.204l-1.812,3.966l0,0l-0.267,1.655l0.884,1.632l0,0l3.794,1.488l2.239,-0.304l0,0l1.19,-0.311l0,0l2.951,-1.087l2.192,1.083l2.289,0.271l0,0l2.235,2.177l0,0l1.707,1.244l0,0l-0.732,-3.421l-4.048,-4.982l0.312,-2.802l1.868,0.622l1.557,1.246h2.179l0.623,-2.491l-3.113,-3.425l1.245,-3.114l1.246,-2.802l5.294,-0.934l-0.312,-1.869l-2.802,-2.18l-4.67,-0.312l0.311,-3.113l1.245,-2.803l2.18,-3.113l2.18,-0.623l1.869,-1.246l0.622,5.605h2.492l0.934,-3.113l2.492,-4.983l5.915,-1.244l2.803,-3.114l3.424,-0.935l3.113,0.312l3.737,3.114v4.358l0.623,3.113l1.868,4.048l-0.934,2.181l-3.425,1.245l-1.558,3.425v3.113l-2.491,0.313v1.869l1.246,1.557v4.048l-3.426,1.245l-1.557,1.868l-2.802,-0.313l-0.624,-2.801h-3.113l-2.179,1.245l-1.558,2.491l0.451,1.503l0,0l0.3,-0.217L298.396,513.212z"/>
	</g>
</svg>