<?xml version="1.0" encoding="utf-8"?>
<!-- (c) ammap.com | SVG map of South Korea - High -->
<svg xmlns="http://www.w3.org/2000/svg" xmlns:amcharts="http://amcharts.com/ammap" xmlns:xlink="http://www.w3.org/1999/xlink" version="1.1">
	<defs>
		<style type="text/css">
			.land
			{
				fill: #CCCCCC;
				fill-opacity: 1;
				stroke:white;
				stroke-opacity: 1;
				stroke-width:0.5;
			}
		</style>

		<amcharts:ammap projection="mercator" leftLongitude="125.384458" topLatitude="38.612296" rightLongitude="131.873029" bottomLatitude="33.194027"></amcharts:ammap>

		<!-- All areas are listed in the line below. You can use this list in your script. -->
		<!--{id:"KR-11"},{id:"KR-26"},{id:"KR-27"},{id:"KR-28"},{id:"KR-29"},{id:"KR-30"},{id:"KR-31"},{id:"KR-41"},{id:"KR-42"},{id:"KR-43"},{id:"KR-44"},{id:"KR-45"},{id:"KR-46"},{id:"KR-47"},{id:"KR-48"},{id:"KR-49"},{id:"KR-50"}-->

	</defs>
	<g>
		<path id="KR-50" title="Sejong" class="land" d="M180.84,395.146L182.397,397.326L182.086,400.128L179.906,400.751L182.709,404.176L182.709,406.979L183.159,408.328L186.491,408.523L186.398,409.979L185.573,411.799L186.651,412.939L184.789,419.024L185.367,418.243L185.766,417.918L186.472,418.063L187.087,418.922L187.396,418.957L187.068,422.235L186.134,425.039L182.709,426.596L181.798,426.639L179.283,427.218L179.596,435.937L177.416,438.428L175.713,436.376L173.965,435.031L172.754,431.937L172.888,427.902L172.619,425.077L171.274,421.176L168.583,419.697L166.7,417.141L166.566,415.123L167.642,412.702L167.642,409.608L167.507,406.11L167.239,402.747L167.911,400.326L167.642,397.231L167.104,395.215L166.028,393.197L166.431,391.447L169.122,390.371L171.677,391.178L173.157,392.793L175.848,394.407L178.403,395.348z"/>
	</g>
</svg>