<?xml version="1.0" encoding="utf-8"?>
<!-- (c) ammap.com | SVG map of South Korea - High -->
<svg xmlns="http://www.w3.org/2000/svg" xmlns:amcharts="http://amcharts.com/ammap" xmlns:xlink="http://www.w3.org/1999/xlink" version="1.1">
	<defs>
		<style type="text/css">
			.land
			{
				fill: #CCCCCC;
				fill-opacity: 1;
				stroke:white;
				stroke-opacity: 1;
				stroke-width:0.5;
			}
		</style>

		<amcharts:ammap projection="mercator" leftLongitude="125.384458" topLatitude="38.612296" rightLongitude="131.873029" bottomLatitude="33.194027"></amcharts:ammap>

		<!-- All areas are listed in the line below. You can use this list in your script. -->
		<!--{id:"KR-11"},{id:"KR-26"},{id:"KR-27"},{id:"KR-28"},{id:"KR-29"},{id:"KR-30"},{id:"KR-31"},{id:"KR-41"},{id:"KR-42"},{id:"KR-43"},{id:"KR-44"},{id:"KR-45"},{id:"KR-46"},{id:"KR-47"},{id:"KR-48"},{id:"KR-49"},{id:"KR-50"}-->

	</defs>
	<g>
		<path id="KR-48" title="South Gyeongsang" class="land" d="M239.305,487.755l1.135,0.895l1.561,-0.012l0,0l0.706,0.364l0,0l0.308,2.603l0.942,0.563l0,0l2.138,0.328l0,0l1.773,0.215l0.583,1.127l1.149,0.633l0,0l4.434,0.782l0,0l2.547,-0.265l0,0l1.488,0.751l0,0l1.539,0.746l0.492,0.738l0.778,2.868l0,0l0.659,0.494l0,0l2.06,0.987l0.661,1.147l-0.232,0.611l2.516,1.49l0.94,1.787l-0.245,2.204l-1.812,3.965l0,0l-0.267,1.655l0.884,1.632l0,0l3.794,1.488l2.239,-0.304l0,0l1.19,-0.311l0,0l2.95,-1.087l2.193,1.084l2.289,0.27l0,0l2.235,2.177l0,0l1.661,1.234l2.454,-0.049l3.483,-2.492l0,0l1.52,-0.375l0,0l2.416,0.891l1.076,-0.593l0.805,-3.582l0.777,-1.001l0.3,-0.217l0.972,0.013l0,0l0.691,1.275l-0.467,3.045l0,0l0.787,2.369l0.895,1.29l2.114,1.687l0,0l0.939,1.081l1.382,0.7l0,0l5.868,-1.104l0,0l3.434,0.771l3.992,1.97l0,0l1.917,0.572l1.563,-0.56l3.938,-3.265l1.011,0.297l0,0l1.135,-0.438l1.802,-2.29l0,0l2.017,-1.413l0,0l2.101,0.042l0,0l1.333,0.103l1.591,0.768l0,0l1.282,0.704l0,0l2.414,0.864l0,0l0.958,-0.353l0,0l0.769,-0.789l0,0l1.466,2.421v1.465l-1.198,1.047l0,0l-2.226,1.886l0.342,4.814l2.226,1.047h2.739l0,0l2.396,0.208l3.253,3.348l0,0l3.423,3.974l2.226,1.882l0,0l3.082,0.208l0,0l1.264,1.544l0,0l-2.943,2.706l-0.572,1.857l-4.857,0.571l-1.714,2.571l-0.856,2.714l-1.029,1.339l-1.832,-0.316l-3.943,2.476l-0.977,1.162l-0.791,0.198l-0.857,1.999l-1.429,1.572l-4.143,0.143l-3.856,2.428l-2.286,0.287l-0.429,4.998l-4.286,1.144l-2.428,1.001l-0.2,0.464l0,0l-1.807,2.223l-0.971,-0.733l0.157,1.245l-1.205,0.096l-1.048,-0.765l-0.654,1.05h-0.473l-0.367,-0.732l-0.865,0.191l-0.052,-0.925l-1.231,-0.031l0.105,0.511l-0.707,0.318l-0.708,-0.733l-0.211,-0.479l0.892,-0.414l0.813,-1.308l-0.654,-0.765l0.052,-1.054l-0.864,-0.287l0.209,-0.988l-1.676,0.798l0.523,1.754l-1.18,0.957l-0.341,-1.532l-1.781,-0.732l-0.156,-0.765l0.444,-0.575l-1.834,0.319l-0.42,1.723l-0.627,-0.829l-0.839,0.255l0.76,-1.085l-0.655,-1.021l0.185,-0.861l-0.552,0.225l-0.969,-1.309l-0.21,-3.225l1.625,-1.213l1.441,-0.159l0.865,-0.989l-1.232,0.733l-2.96,0.607l-2.201,2.585l0.472,1.245l0.917,0.351l-0.628,0.605l0.341,0.702l0.577,-0.319l0.549,0.448l0.943,2.105l-0.34,0.541l-1.022,0.287l-0.812,-0.287l-0.13,0.702l1.021,0.351l0.812,-0.511l0.68,0.096l-0.313,0.927l0.366,2.455l2.438,1.944l0.025,0.286l-2.28,0.351l0.786,0.957l1.363,-0.319l0.837,0.319l0.028,0.381l-2.804,1.148l-3.119,0.605l0.551,-0.892l0.866,-0.255l0.338,-1.053l-0.338,-0.064l-0.42,0.893l-0.314,-0.414l-1.65,0.224l0.575,1.369l-0.47,0.319l-0.734,-0.16l-1.283,-1.815l2.227,-0.158l-0.314,-1.212l0.968,-0.67l0.892,-0.063v-0.384l-3.772,-1.146l0.603,-0.733l-0.367,-0.351l-0.499,0.319l-0.079,-1.436l-1.022,1.818l-0.524,-0.16l-1.021,0.796l-0.629,0.033l-0.863,-0.926l-1.022,-0.285l0.104,0.828l-1.022,0.414l-1.416,-0.828l-0.863,-0.064l-0.21,1.053l2.96,1.72v0.385l-0.418,0.352l-0.655,-0.736l-0.418,0.958l-2.098,0.191l-1.31,1.942h-1.153l0.052,-0.828l-0.394,-0.064l-1.099,0.99l-1.545,0.381l-0.08,0.542l-0.759,-0.413l0.708,1.593l-0.839,0.669l-0.392,-0.191l0.131,0.892l-1.127,0.859l0.026,0.668l0.839,-0.731l1.887,-0.351l0.105,-1.752l1.493,-0.892l4.061,-1.02l-0.577,-0.987l0.393,-1.021l0.788,-0.191l0.393,0.828l0.891,-0.509l0.078,-0.925l1.258,1.307l-0.445,0.861l0.393,0.349l-0.262,0.894l-1.338,-0.35l-0.444,0.284l0.707,0.511l1.31,0.16l0.394,0.573l-0.419,0.827l1.861,0.893l0.105,0.605l-0.918,1.242l-0.365,-0.637l-0.472,0.096l0.13,1.177l-0.708,0.097l-0.026,0.668l-1.284,-0.508l0.342,0.891l-0.394,0.127l-2.175,-0.731l-3.013,-0.064l0.026,1.434l0.865,-0.51l1.075,0.095l1.205,0.383l0.236,1.05l-0.997,1.4l-0.943,0.541l0.576,0.254l0.08,1.084l-0.498,0.604l0.996,0.891l-0.654,0.447l0.077,1.304l-1.1,0.763l0.787,0.763l-0.603,0.765l0.393,1.526l-0.21,1.238l0.918,-0.667l0.262,-0.508l-0.341,-0.129l0.079,-0.508l1.441,-1.431l-0.131,-0.699l-0.629,-0.445l0.158,-0.318l1.232,-0.096l0.655,1.112l-0.08,0.573h0.447l0.078,0.827l0.812,-0.097l0.157,0.352l-0.76,2.287l-0.681,-0.221l-0.368,-1.113l-0.314,0.921l0.314,1.019l-0.864,-0.128l0.628,0.859l-0.131,1.398l-1.676,1.017l-0.813,-0.286l-1.441,0.636l2.751,0.635l0.237,0.922l-0.262,0.572l0.234,1.493l-0.891,-0.286l-0.103,0.444l0.812,0.858l-0.578,0.539l-1.31,-0.254l1.52,1.208l-1.022,1.333l-0.13,0.89l-1.678,-0.095l-0.235,-0.637l-0.576,0.35l-0.079,-1.684l-0.211,-0.19l-0.601,0.572l-0.211,-0.539l0.498,-0.636l-0.839,-1.208l-0.627,0.954l-0.184,-0.604l-0.943,-0.16l0.787,-0.888l0.706,-0.064l-0.365,-0.539l0.314,-0.731l-2.986,-1.207l-1.049,0.952l-0.576,-1.048v-0.444l0.342,0.35l0.575,-0.318l-0.236,-1.429l0.498,0.094l0.157,1.018l0.498,-0.286l-0.157,-0.731l0.604,-0.158l0.47,0.35l-0.13,0.571l0.734,0.509l0.629,-0.54l1.232,2.511l-0.184,-1.748l0.995,0.317l0.943,-0.762l-0.47,-0.287l-0.629,0.605l-0.237,-0.637l-0.549,0.063l0.418,-0.858l-1.31,0.095l0.314,-0.476l-0.682,-0.668l0.76,-0.096l0.969,-1.271l2.254,0.476l0.655,-0.35l-0.341,-0.604h-2.804l-0.497,-0.667l0.314,-1.018l-0.367,-0.668l-0.289,0.7l-0.786,-0.415l0.629,1.463l-0.341,0.414l-1.572,-0.318l-0.473,-1.685l-0.209,1.558l-0.655,-0.19v-0.826l-0.76,-0.097l0.367,0.605l-0.891,0.19l-0.026,-1.24l-1.074,0.795l-0.629,-1.463l-1.152,-0.858v-0.382l1.389,-0.7h2.489l0.785,0.478l0.787,-0.35l-0.313,-0.509l0.288,-0.668l-0.681,-0.064l-0.156,-0.254l0.365,-0.159l-0.601,-0.572l0.182,-0.859l-0.471,-1.527l-0.472,0.445l-0.55,-0.255l0.208,-1.081l-0.339,0.159l-0.971,-0.797l0.183,1.178l-0.34,0.127l0.445,0.7l-0.419,0.065l-0.182,0.604l-1.417,0.223l0.473,2.068l-1.415,1.019l-0.707,-0.733l0.026,1.4l-0.577,-0.031l-0.026,-0.669l-0.942,-0.224l0.236,-0.667l-0.629,-0.509l0.732,-1.368l-0.314,-0.668l-0.628,-0.096l-0.367,0.446l-0.655,-0.604l-0.288,0.699l-0.025,-0.859l-0.578,-0.189l-1.048,0.508l-0.578,-0.604l-0.418,0.826l-0.524,-0.412l-0.183,0.444l-0.315,-0.285l-0.997,0.443l0.788,1.273l-0.498,1.241l0.314,2.449l-1.887,-0.159l-0.655,-1.399l-0.208,1.209h-0.735l-0.68,-1.209l-1.6,0.572l-0.865,1.559l-0.994,-1.846l-1.049,0.255l-0.733,-1.018l0.602,-0.891l0.657,-0.159l0.183,0.54l0.237,-0.795l-4.14,-0.445l-0.104,0.382l-2.07,-0.699l-1.363,-1.241l-0.026,-0.699l-0.917,-1.338l1.808,-1.369l0.367,-0.953l-0.76,-0.384l-0.578,-1.688l1.022,-2.323l-0.419,-0.797l-0.733,0.638l-0.158,-0.51l0.604,-1.02l-0.262,-1.211l0.942,-3.218l1.153,-0.988l-0.629,-0.32l-2.018,1.53l0.21,0.607l-0.917,0.859l0.393,1.052l-0.315,1.529l-0.549,0.605l-1.074,-0.256l-0.341,-0.477l1.178,-0.639l-0.235,-0.7l-0.026,0.446l-0.706,0.414l-0.316,-0.605l-1.729,-0.318l-0.498,1.243l-0.393,0.095l-0.026,0.286h0.865l0.236,-0.796l0.838,0.158l-0.157,0.67l1.284,1.052l-0.131,1.083l1.127,0.254l-0.394,2.229l-0.706,-0.414l0.051,1.527l-0.444,-0.19l0.183,-0.508l-0.708,-0.893l-0.446,0.16l0.131,1.146l-0.419,-0.573l-0.419,0.19l0.551,0.733l-0.865,0.444l-1.127,-2.165l-0.785,0.192l-0.472,1.178l-0.445,-0.224l-0.472,0.318l0.497,0.859l-1.493,-0.54l0.367,-0.827l-0.604,0.221l-0.262,-0.636l0.314,-0.51l0.445,0.287l0.079,-1.242l-0.707,-0.19l-0.839,-1.242l-0.472,0.699l0.288,0.733l-0.629,1.401l0.21,0.986h-0.918l0.394,1.242l-0.996,0.127l-0.499,0.986l0.184,0.351l-0.733,0.573h-0.734l-0.366,0.764l-1.442,0.191l-0.445,-0.447l-1.048,0.447l-0.236,-1.528l-0.419,-0.254l-0.157,0.636l-0.551,-0.859l-0.418,2.101l-0.499,0.318l-0.471,-0.731l-0.749,0.158l-0.091,-0.451l-0.694,-0.321l0.036,-2.928l-1.572,-4.104l0,0l-1.741,-1.326l0,0l-1.177,-1.868l-1.613,-0.686l-0.765,-1.237l0,0l-1.09,-1.043l0,0l-0.194,-2.896l-3.036,-3.632l-2.219,-1.127l-1.296,-1.687l-0.905,-9.198l-2.654,-2.981l0.016,-1.559l0.783,-0.696l0,0l0.229,-0.204l0,0l2.211,-2.3l-0.549,-2.862l0.337,-1.157l0.817,-1.982l3.695,-3.56l0.554,-3.456l0,0l-0.099,-0.544l0,0l-1.629,-0.427l0,0l-0.69,-1.924l0,0l0.685,-3.334l0,0l-1.267,-2.267l0,0l-0.501,-1.046l0.08,-1.854l0,0l-0.694,-0.701l-2.073,-0.668l0,0l-0.17,-2.312l0,0l1.585,-3.273l0,0l0.784,-4.727l0,0l1.901,-4.932l0.94,-1.447l0,0l0.891,-0.796l0.155,-1.913l0,0l0.78,-4.811l1.669,-1.143l3.26,-3.585l0.806,-2.281l0,0l0.668,-1.204l0,0l0.181,-0.582l0,0l0.206,-0.637l0.443,0.164l0,0l0.709,0.494l0,0l1.303,-0.056l0,0l1.822,-1.146l0,0l1.458,-0.009l1.778,-1.644l1.321,-0.237l0.537,-1.933l1.506,-2.68l2.32,-1.511l0.128,1.934L239.305,487.755zM325.062,579.521l0.395,0.063l0.104,1.369l1.021,-0.285l0.471,1.752l-1.624,3.408l0.655,0.795l-0.576,1.434l-0.733,0.413l0.262,-0.603h-0.76v-0.766l-0.342,-0.191l0.131,-0.795l0.684,-0.414l-2.045,-0.893l-0.078,-0.383l0.653,0.064l0.368,-0.478l-0.761,-0.605l0.446,-0.191l-0.054,-0.67l-0.522,-0.701l-0.762,-0.126l-0.13,-0.702l0.865,-0.284l0.026,-0.384l1.57,-0.095l0.132,-0.67L325.062,579.521zM310.782,582.516l0.732,0.287l0.446,0.859l0.76,-0.096l-0.053,-0.542l0.525,0.51h0.785L314.87,585l-0.865,1.656l-0.55,-0.446l-0.498,0.35l-0.104,0.383l0.523,0.19l0.079,0.478l-1.362,0.064l0.183,0.604l0.604,-0.095l-0.524,1.146l0.131,1.083h0.654l0.395,0.891l0.89,0.032l-0.183,0.827l0.367,0.765l0.654,0.19l0.131,1.146l-0.419,0.223l-0.445,-0.317l0.025,2.162l0.524,0.765l-0.367,0.508l-0.891,-0.287l0.629,1.305l-0.969,0.158l-0.342,0.701l-0.681,0.287l-0.054,1.048l1.442,0.287l-0.445,0.636l0.341,0.255l0.76,-1.464l1.1,-0.762l0.97,0.57l1.179,-1.048l-0.864,1.207l0.158,0.479l-0.577,0.095l0.446,1.24l-0.655,0.698l-0.944,-0.539l-0.262,0.254l1.152,2.385l-1.126,0.284l-0.576,-0.984l-1.599,1.049l0.026,0.89l0.629,0.541l0.864,-1.018l0.734,0.541l0.104,0.572l-0.708,0.508l1.992,3.366l0.025,0.763l-0.497,0.097l-0.498,-0.764l-1.888,-0.19l-0.025,-0.413l0.577,-0.381l-0.76,-1.365l-0.97,0.634l0.105,1.207l-0.289,0.064l-0.682,-0.19l0.341,-0.483l-0.131,-0.756l-2.069,-0.445l-0.235,2.288l0.707,0.857l-1.441,1.271l-1.18,-0.445l-0.732,1.777l1.387,2.382l1.967,-0.253l0.732,0.444l0.13,0.412l-0.627,0.127l0.026,0.857l-0.524,-0.826l-1.415,-0.508l-0.392,0.635l-1.182,-0.189l-0.917,0.571l-0.182,-0.699l-0.472,0.762l0.838,1.207l0.813,0.221l0.235,0.54l-0.394,0.381l-0.629,0.032l-0.576,-0.508l-1.493,1.459l-1.808,-0.92l-1.284,0.761l-0.159,-0.54l0.499,-0.981l0.734,-0.096l-0.289,-0.667l1.754,-0.477l0.315,-0.507l-0.578,-0.698l-1.361,0.063l-0.892,-0.477l0.027,-1.269l0.445,-0.509l-0.262,-0.667l2.043,-0.158l-0.051,-0.444l-0.812,-0.317l0.497,-0.858l-1.415,0.287l-0.707,-0.351l-1.232,1.398l-0.76,-0.19l-0.078,-0.891l1.415,-1.396l-0.996,-0.159l-1.39,1.556l0.237,-1.047l-0.656,-0.382l0.969,-0.159l0.237,-0.539l1.991,0.032l1.179,-0.509l0.025,-2.287l1.049,-0.858l-0.079,-0.762l-0.708,0.189l-0.183,-0.856l-0.656,-0.191l-0.156,-0.479l1.048,0.318l0.026,-0.698l-1.441,-0.825l-0.97,1.334l0.157,1.144l-2.332,-0.285l-0.21,0.698l-0.758,-0.444l-0.472,0.634l0.366,0.731l-0.759,-0.253l0.366,0.92l-0.655,0.764l-0.603,-0.032l-0.13,-0.984l-0.812,-0.699l0.68,-0.858l-1.206,-0.158l-1.257,-0.922l-0.367,-0.89l0.262,-0.35l-0.629,-0.383l0.367,-0.35l-0.524,-1.747l0.419,-1.271l0.76,-0.541l0.707,-1.336l0.813,-0.063l-0.393,-0.699l0.812,0.35l-0.471,-0.795l0.603,0.413l0.837,-0.222l-0.026,-0.637l0.945,-0.923l0.917,0.19l0.968,0.859l0.028,0.54l1.938,1.21l0.917,-0.159l0.052,-0.414l-0.602,-0.509l1.441,-0.764l0.523,0.827L303,597.54l0.209,0.669l0.787,-0.382l0.68,1.43l0.997,0.318l0.052,-0.731l-0.892,-1.462l0.262,-0.636l-0.995,0.286l0.262,-1.051l-0.708,-0.096l-0.786,-1.877l-0.917,-0.287l0.342,-1.048l0.417,0.413l0.524,-0.573l-0.13,-1.368l0.733,-0.511l0.471,0.287l-0.499,1.082l1.127,-0.637l1.469,0.287l-0.027,-0.636l0.891,0.891l0.733,0.158l0.288,-0.317l-0.55,-0.224l0.105,-1.113l0.498,-0.892l0.575,-0.224l-0.498,-0.063l-0.051,-0.668l1.048,-0.255l-0.499,-0.796l0.734,0.352l0.341,-0.479l0.394,0.987l0.602,0.031l-0.732,-1.306l0.838,-0.159l-0.105,-0.573l-0.419,0.414l-0.891,-0.286l0.392,-1.656l0.395,-0.063l-0.025,-1.274l0.892,-0.128l-0.866,-0.572L310.782,582.516zM307.979,584.681l0.473,1.243l-0.656,1.241l-0.053,0.414l0.578,0.159l-0.63,0.063l-0.053,1.72l-1.728,0.383l0.288,-0.415l-0.788,-0.285l-0.392,0.891l-0.76,0.19l0.209,-1.4l0.446,-0.223l0.183,0.317l0.734,-0.923l-0.079,-0.286l-0.918,0.031l0.105,-0.51l1.572,-0.031l-0.235,-1.114l0.629,-0.765l0.523,0.383L307.979,584.681zM236.683,593.309l0.55,0.542l0.891,-0.031l0.078,0.444l0.472,-0.35l0.21,0.667l0.183,-0.795l0.629,0.286l-0.393,0.638l0.707,2.13l-0.471,1.56l0.157,1.24l-0.577,-0.031l-0.944,0.954l-0.707,-0.096l-0.34,1.493l0.996,2.226l0.628,0.445l-0.577,0.922l1.468,1.048l0.708,-0.285l0.996,0.668l0.157,2.128l0.917,0.444l0.786,-0.189l0.339,-0.319l-0.68,-0.54l1.808,-0.698l-0.104,-0.667l1.231,-0.699l2.673,0.19l0.052,-0.317l0.995,-0.159l0.394,0.827l1.074,0.571l0.235,-0.382l1.179,0.477l0.551,0.954l-0.472,0.92l0.392,0.445l-0.446,0.316l-0.733,-0.253l-0.13,0.636l0.602,0.317l-0.761,1.207l0.866,3.523l-0.262,0.699l-0.654,0.189l-1.232,1.303l-0.182,0.825l2.488,1.776l-0.655,-0.316l-0.025,0.443l-0.604,0.064l-0.393,0.633l-0.733,-0.127l0.131,-0.477l-0.865,-0.029l-0.236,0.792l-0.498,-0.159l0.654,-1.936l-0.942,-0.603l-0.786,0.286l0.313,0.699l-0.235,0.38h-0.471l-0.262,-0.508l-0.787,0.317l-0.34,-0.825l-0.472,0.286l0.393,0.697l-0.393,0.444l-1.101,-0.317l-1.468,0.254l-0.393,-0.856l0.472,-0.19l-0.052,-0.477l-0.655,-0.222l-0.604,-2.538l0.393,-2.097l0.656,-0.889l-0.419,-0.539l-2.097,0.189l-2.253,1.144l0.707,3.683l-0.498,0.73l-1.624,0.602l-2.988,-0.635l0.419,-0.729l-1.074,-0.412l0.524,-0.54l-0.34,-0.666l-1.494,-0.095l-0.157,-0.858l0.577,-0.127l0.209,-0.604l-0.262,-0.538l1.074,-0.255l-0.602,-1.999l-0.734,-0.256l-0.366,-0.699l0.235,-1.429l-0.838,-0.317l0.053,-0.73l-1.389,-1.843l-0.576,-2.83l0.97,-0.89l-0.21,-0.73l0.289,-0.349l0.97,-0.064l-0.184,-0.89l0.602,-0.923l-0.34,-0.318l0.996,-0.542l0.184,-0.856l0.393,0.604l1.65,-0.223l-0.969,-1.271v-0.86h0.523l-0.419,-0.699l1.075,-0.382l-0.08,-0.572l0.498,-0.668L236.683,593.309zM249.6,596.077l0.236,0.7l-0.707,1.686l-0.89,0.827l-0.551,3.147l1.284,0.286l-0.13,-2.067l1.311,-1.749l0.994,0.129l0.211,1.59l0.603,-0.256l1.074,1.306l-0.131,1.397l-0.76,0.254l-0.339,0.795l0.758,-0.317l0.263,0.73l-0.394,0.445h1.443l0.026,0.699l0.891,0.254l0.157,0.985h-0.865l-0.498,-0.857l-0.733,0.604l-0.97,-0.954l-0.785,0.318l-2.28,-1.525l-0.314,1.207l-1.389,0.318l-1.624,-0.063l-1.651,-0.826l0.261,-0.35l-0.759,-0.731l-0.237,-1.176l0.184,-0.954l1.31,-0.826l0.105,-0.826l1.152,-0.924l0.052,-1.049l0.682,-0.954l1.756,-1.05l0.576,0.19L249.6,596.077zM265.637,603.201l2.305,0.984l0.759,0.795l-0.261,0.317l-2.227,-0.095l-0.576,0.413l-0.473,1.239l-0.969,0.381l-0.55,-0.763l0.418,-0.54l-1.284,-0.317l-0.288,-1.335L265.637,603.201zM269.094,605.393l1.258,1.971l1.493,0.89l-0.55,0.794l-2.017,-0.189l0.576,1.143l-0.313,0.731l-0.474,-0.763L267.811,610l-0.026,-0.793l-1.257,0.063l-0.131,-0.382l0.683,-0.159l-0.186,-0.317l-1.361,-0.381l0.157,-0.795l0.393,0.413l0.812,-0.03l-0.654,-0.604l0.865,-1.24L269.094,605.393zM292.441,608.063l0.104,0.318l-0.707,0.381l0.367,0.413l0.104,-0.445l0.419,0.032l-0.235,0.54l0.68,0.763l0.105,2.128l1.207,-0.254l0.55,0.825l-0.315,1.175l-1.885,1.111l-0.656,-0.508l-1.337,0.063l0.367,-0.254l-0.367,-0.635l0.577,-0.254l-1.337,-1.779l0.315,-0.539l-0.079,-1.748l0.523,0.572l-0.051,1.207l0.759,-0.381l-0.158,-1.048l1.127,0.635l-0.682,-1.016l-0.865,0.253l-0.288,-0.73l0.288,-0.826H292.441zM269.882,626.916l1.204,0.951l0.655,-0.222l0.996,0.824l-0.237,0.571l-0.759,0.126l0.681,0.316l0.263,0.635l0.943,-1.648l1.335,-0.032l-0.549,0.54l0.288,0.379l-0.812,0.445l0.157,0.919l-1.651,-0.096l-0.078,-0.476l-0.761,-0.284l-0.683,0.886l-1.073,0.033l-0.158,0.919l-0.891,-0.159l-0.262,-0.57l1.075,-0.189l0.053,-0.507l-0.788,-0.571l0.262,-0.762l-0.864,0.509l-0.446,-0.73l1.102,-0.38l-0.681,-0.983l0.549,-0.412L269.882,626.916z"/>
	</g>
</svg>