<?xml version="1.0" encoding="utf-8"?>
<!-- (c) ammap.com | SVG map of South Korea - High -->
<svg xmlns="http://www.w3.org/2000/svg" xmlns:amcharts="http://amcharts.com/ammap" xmlns:xlink="http://www.w3.org/1999/xlink" version="1.1">
	<defs>
		<style type="text/css">
			.land
			{
				fill: #CCCCCC;
				fill-opacity: 1;
				stroke:white;
				stroke-opacity: 1;
				stroke-width:0.5;
			}
		</style>

		<amcharts:ammap projection="mercator" leftLongitude="125.384458" topLatitude="38.612296" rightLongitude="131.873029" bottomLatitude="33.194027"></amcharts:ammap>

		<!-- All areas are listed in the line below. You can use this list in your script. -->
		<!--{id:"KR-11"},{id:"KR-26"},{id:"KR-27"},{id:"KR-28"},{id:"KR-29"},{id:"KR-30"},{id:"KR-31"},{id:"KR-41"},{id:"KR-42"},{id:"KR-43"},{id:"KR-44"},{id:"KR-45"},{id:"KR-46"},{id:"KR-47"},{id:"KR-48"},{id:"KR-49"},{id:"KR-50"}-->

	</defs>
	<g>
		<path id="KR-44" title="South Chungcheong" class="land" d="M92.285,433.004l-0.106,0.906l-1.309,-0.615l-0.472,0.68l-0.235,-1.393l1.073,-0.745l0.026,-1.328l0,0h0.656l0.209,1.685l0.943,0.713L92.285,433.004zM99.542,428.241l-0.733,0.778l1.153,0.583l1.572,0.161l-0.157,0.939l-1.415,-0.129l-0.184,-0.615l-1.651,-0.454l-1.624,0.032l-0.394,-0.583l-1.205,0.421l-0.655,-0.26l-0.026,-1.068l0.734,-0.551l1.44,0.486l1.075,0.906l-0.524,-1.425l0.943,-0.454l0,0l1.022,0.098l0.158,1.037L99.542,428.241zM93.804,411.571l0.262,0.326l1.153,-0.034l0.812,0.941l0.21,1.104l-0.524,0.355l-0.026,0.553l1.1,-0.325l-0.156,1.818l0.863,1.427l-0.995,1.427l0.786,0.195l0.708,1.427l0.864,0.13l-0.209,0.973l0.472,1.167l-1.285,1.005l0.576,1.361l-0.838,0.13l0.209,-0.455l-0.34,-0.452l-0.498,0.291l-0.158,-1.167h-1.206l0.367,-0.745l-1.913,-0.033l-0.052,0.584l-0.917,0.519l-0.498,-0.615l-0.419,0.065l-0.131,-1.006l-0.682,0.032l0.551,-1.881l-1.992,0.194l-0.445,-0.583l0.235,-0.649l-0.366,-0.973l0.759,-1.719l-1.363,0.389l0.105,-0.486l0.681,-0.292l0.288,-2.108l-0.052,-0.65l-0.603,-0.291l0.288,-0.909l-0.524,-0.195l0.315,-5.194l-1.441,-1.852l-0.209,-1.526l0.891,-0.846l0.053,-0.812l2.777,-2.112l0,0l0.42,-0.163l0.917,0.78l-0.052,1.138l0.787,0.617l-0.184,0.747l0.419,0.099l-0.053,1.136l-1.362,0.455l-0.156,0.521l1.467,0.682l0.34,1.754l-0.236,1.494l1.021,1.363l-0.104,0.584L93.804,411.571zM100.564,349.877l-2.804,0.294l0.289,-0.981l-0.603,-1.079l0.262,-0.72l0,0l2.358,0.393l0.524,0.817L100.564,349.877zM105.071,347.327l2.018,0.719l0,0l1.546,2.256l2.201,0.36l6.787,4.051l1.599,0.392l4.742,-0.163l0.367,0.785l7.494,2.024l0.288,0.425l-0.367,0.947l1.572,2.677l-0.314,0.424l0.419,0.784l0.367,0.555l0.288,-0.327l0.471,0.163l0.525,3.362l0.942,1.076l0.027,0.555l3.563,0.652l1.704,-0.783l2.776,-0.279l0.986,-0.056l0.827,-1.208l1.638,-0.809l7.535,1.758l0.832,-0.612l0.938,0.005l3.158,-1.162l3.004,-2.065l2.578,-0.084l2.982,1.423l1.335,1.794l1.945,1.582l5.085,0.697l0.907,2.414l2.832,1.915l0.229,2.654l1.48,0.707l0.527,0.066l0.063,0.42l-0.161,1.99l1.077,0.478h2.875l3.114,2.18l1.245,3.736l-1.557,1.869l-3.737,-0.312l-4.982,7.785l-2.438,0.202l-2.555,-0.941l-2.69,-1.614l-1.48,-1.615l-2.556,-0.807l-2.69,1.076l-0.403,1.75l1.076,2.018l0.539,2.017l0.269,3.095l-0.672,2.421l0.269,3.363l0.135,3.498v3.094l-1.076,2.421l0.134,2.018l1.883,2.557l2.691,1.479l1.345,3.901l0.269,2.825l-0.134,4.034l1.211,3.095l1.748,1.345l1.703,2.052l0.311,4.048l2.18,1.868l0.312,3.425l1.557,2.18l2.491,0.935l0.934,3.113h1.246l0.934,-2.18l0.623,-4.981l-0.312,-3.114h1.557l0.623,1.557v1.869l2.179,3.736l3.737,2.18l2.179,-2.803l3.345,-2.178l2.796,0.975l1.03,0.847l2.792,-0.266l1.869,3.113l0.311,3.114l-1.246,2.802l0.312,2.803l2.179,1.868l1.557,3.113l0.932,2.795l-0.309,0.329v2.48l-2.803,2.804l-1.557,-1.246l-2.538,-1.202l-1.884,0.998l-1.026,0.182l-0.158,2.202l-0.934,1.868l-3.113,0.622l-3.425,-0.311l-0.623,-2.803l-0.073,-2.18l-0.605,-0.162l-3.058,1.719h-1.245l-1.868,-4.358l-0.347,-2.769l-2.958,-5.093l-1.131,-1.624l-2.414,2.012l-4.359,-0.311l0.624,2.49l-5.294,0.312l-1.726,-1.726l-1.116,-0.164l-1.895,1.148l-2.295,0.234l-1.472,0.718l-2.546,-0.183l-0.506,-0.806l-0.025,-1.21l-2.43,-0.192l-0.312,-3.737l-2.189,-2.006l-1.264,0.379l-3.756,-2.265l-3.677,-0.668l-2.674,2.006l-2.005,0.668l-0.003,8.425l-7.162,3.427l-4.359,1.557l-1.479,-1.356l-1.304,0.557l-0.682,-0.327l-0.314,1.032l-1.074,1.128l-4.271,-1.063l-1.127,0.612l-0.733,-0.742l0.419,-1.064l-0.472,-1.063l0.682,-0.064l0.078,-0.42l-2.253,-2.58l-1.048,0.096l-0.288,-2.807l-1.049,0.192l0.682,-1.032l0.732,0.419l1.101,-0.807l-0.079,-0.517l-1.179,0.319l0.026,-0.835l-1.048,-0.484l-0.813,0.71l-1.336,-2.939l-2.542,-2.196l-1.389,1.39l-0.131,-0.905l-0.785,-0.936l-2.621,-0.938l-1.179,0.323l-0.288,2.39l-1.075,-0.968l0.027,-2.746l0.812,0.452l1.546,-0.227l0.759,-0.97l-0.184,-2.229l1.102,-1.584l0.392,-0.033l-0.891,-4.494l0.655,-0.776l0.314,-1.747l0.708,-0.129l0.053,-0.484l-0.577,-0.972l-0.733,-0.29l0.497,-0.324l-1.179,-2.234l-0.917,0.131l-0.42,-1.619l-1.231,-1.585l0.445,-0.52l0.838,0.421l0.629,-0.81l2.227,-0.777l0.289,-0.68l0.917,-0.552l2.594,0.228l-3.249,-0.681l-4.717,-3.272l-1.781,-0.032l0.418,-3.208l0.917,-1.913l0.997,-0.228l1.388,-1.426h1.258l0.654,-1.199l0.682,0.097l0.184,-0.389l1.493,0.097l0.682,-2.757l1.258,0.714l1.441,-0.261l0.997,-1.232l-2.228,0.779l-1.441,-0.909l-0.498,0.487l-0.498,-0.585l-0.105,0.746l-2.096,1.363l-0.314,1.168l-0.787,0.064l-0.314,1.396l-2.62,1.329l0.263,-1.2l-1.232,-1.297l0.105,-1.784l-0.655,-1.006l0.235,-3.407l0.708,-0.261l0.263,-0.973l1.048,-0.876l2.148,0.811l1.284,1.526l0.76,-0.099l-1.65,-1.558l-1.755,-0.681l-0.734,-0.748l-1.494,1.267l-0.234,-1.006l-2.123,-1.884l0.654,-1.688l-0.733,-3.021l-0.996,-1.202l-3.458,-1.397l-0.551,-0.943l-3.616,-0.584l-0.682,-0.651l-2.332,1.399l-1.573,1.526l-0.576,1.56l-0.603,-0.584l-1.572,1.852l-0.209,-0.909l-0.813,-0.813l0.656,-1.04l-0.105,-1.885l1.047,-0.748l-0.131,-3.153l-1.073,-2.31l-0.551,-0.422L83.9,393.7l-0.917,-0.227l-0.079,-0.749l0.394,-0.358l-0.525,-0.326l-0.105,-0.715l0.105,-0.685l1.022,-0.683l-0.209,-1.433l0.289,-0.78l0.471,0.13l0.34,-0.423l-0.394,-0.749l-0.864,0.065l-0.996,1.465l-2.097,-0.098l-0.183,0.976l0.604,0.489l-0.105,0.358l-0.76,0.228l0.131,0.585L77.716,391l0.132,0.652l-0.943,0.227l0.184,0.456l-0.445,0.976l-0.787,0.26l-0.315,-0.749l-0.89,0.391l-1.914,-0.292l-0.603,-2.017l0.341,-0.293l-0.551,-0.554l0.262,-0.422l1.18,-0.293l-0.288,-0.391l0.943,-0.781l1.284,0.357l1.467,1.107l0.812,0.065l0.97,-0.716l0.576,-1.205l-0.891,-0.651l-1.048,0.651l0.052,-0.651l1.207,-1.691l-1.232,0.585l-1.913,-1.074l1.022,-1.335l-0.865,0.195l-0.314,-0.423l-1.493,-0.065l-0.865,0.553l-1.546,-0.846l0.131,0.912l0.864,0.75l0.157,2.018l-2.672,2.669h-0.419l0.131,-0.782l0.524,-0.292l-0.34,-1.172l1.127,-1.627l-0.393,-0.619l0.314,-0.423l-0.157,-0.293l-0.708,0.293l-0.34,-0.554l0.235,-0.684l-0.393,-0.065l0.184,-0.488l-0.813,-0.456l-0.079,-0.554l1.808,-0.358l-0.026,-1.271l0.419,0.521l1.049,-0.847l0.418,-1.565h-0.497l-0.237,-0.651l0.682,-0.39l-0.027,-0.554l0.656,-0.065l0.183,-1.174l-1.284,-1.206l0.917,-0.033l-0.577,-1.043l0.628,0.293l0.472,-0.75l0.079,1.076l1.022,0.064l-0.498,1.304l0.629,0.586l-0.184,1.825l0.236,0.195l0.445,-0.717l1.284,3.323l0.629,0.359l-0.525,-2.64l-0.838,-0.489l-0.262,-1.205l1.1,-0.097l-1.415,-1.565l1.127,-0.782l0.943,-1.956l-0.996,0.065l0.053,-1.207h-0.655l-0.079,-0.489l0.891,-0.685l-0.523,-0.685l-0.917,-0.163l0.104,-0.359l0.996,-0.293l0.446,0.522l0.419,-0.098l0.288,-0.554l-0.288,-0.327l0.681,-0.391l-0.183,-0.979l0.917,0.784l0.549,-0.816l1.546,-0.392l0.262,-0.685l0.499,0.261l0.969,-0.359l-0.445,0.686l2.673,1.305l1.022,-0.228l-0.368,-1.077l0.838,-1.306l-0.288,-3.688l-0.76,-1.437l0.419,-0.718h0.865l0.524,-0.98l0.523,-0.098l0.262,0.752l-0.445,0.816l-1.021,0.261l0.812,1.045l0.629,-0.359l0.367,0.26l-0.943,1.306v3.231l0.655,0.457l0.131,0.75l0.865,0.261l0.183,1.599h0.97l-0.131,0.555l-1.231,0.032l-0.394,0.359l-0.026,0.815l-0.969,1.206l-0.031,1.012l-0.625,0.619l-0.079,1.174l2.096,0.456l-0.157,0.684l-1.912,0.946l-1.128,-0.032l-0.235,0.75l0.681,0.423l-0.209,1.303l0.498,0.62l0.524,-0.521l-0.13,-0.587l0.367,-0.259l0.262,0.521l0.314,-0.198l-0.314,-0.616l0.34,-0.424l0.76,0.424l0.864,-0.88l0.525,0.586l0.602,-0.032l0.079,-0.392l-0.943,-0.75l-0.105,-0.75l0.393,-0.424l-0.969,-0.75l1.126,-2.674l0.759,0.458l0.839,-0.164l-0.419,1.696l1.257,1.727l0.813,0.099l-0.891,-1.858l1.441,-1.239l0.026,-1.337l-0.629,-0.88l1.231,-0.717l1.939,0.26l-0.157,-1.533l0.707,0.293l0.105,-0.75l0.969,0.392l0.289,-0.489l1.101,-0.065l0.131,-0.358l-0.446,-0.556l-1.704,-0.26l0.21,-0.784l-0.551,-0.359l-0.078,-0.293l0.863,0.196l0.524,-0.523l-0.026,-1.501l-0.917,-0.425l0.051,0.458l-0.969,0.098l-0.759,0.783l-0.629,-0.554l-0.235,-1.273l-1.179,-0.261l-0.943,0.914l-0.262,-0.26l0.445,-1.078l-0.918,-0.163l-0.182,-1.143l-1.442,0.164l0.209,-1.077h2.464l0.707,1.109l0.446,-0.979h1.101l0.105,-0.36l-0.131,-0.327l-0.864,0.163l0.104,-0.718l-0.55,-0.522l-0.813,0.491l-0.183,-0.491l-2.961,-0.228l-0.314,-1.83l0.708,0.359l1.65,-0.882l0.314,-0.785l0.813,0.523l1.755,-0.359l0.341,-0.686l0.366,0.49l3.59,-0.099l2.673,1.34l1.258,-0.653l-0.997,-1.895l0.419,0.097l2.175,-2.516l-0.525,-0.556l0.708,-1.373h0.498L105.071,347.327z"/>
	</g>
</svg>