<?xml version="1.0" encoding="utf-8"?>
<!-- (c) ammap.com | SVG map of South Korea - High -->
<svg xmlns="http://www.w3.org/2000/svg" xmlns:amcharts="http://amcharts.com/ammap" xmlns:xlink="http://www.w3.org/1999/xlink" version="1.1">
	<defs>
		<style type="text/css">
			.land
			{
				fill: #CCCCCC;
				fill-opacity: 1;
				stroke:white;
				stroke-opacity: 1;
				stroke-width:0.5;
			}
		</style>

		<amcharts:ammap projection="mercator" leftLongitude="125.384458" topLatitude="38.612296" rightLongitude="131.873029" bottomLatitude="33.194027"></amcharts:ammap>

		<!-- All areas are listed in the line below. You can use this list in your script. -->
		<!--{id:"KR-11"},{id:"KR-26"},{id:"KR-27"},{id:"KR-28"},{id:"KR-29"},{id:"KR-30"},{id:"KR-31"},{id:"KR-41"},{id:"KR-42"},{id:"KR-43"},{id:"KR-44"},{id:"KR-45"},{id:"KR-46"},{id:"KR-47"},{id:"KR-48"},{id:"KR-49"},{id:"KR-50"}-->

	</defs>
	<g>
		<path id="KR-46" title="South Jeolla" class="land" d="M66.554,668.835l0.368,1.2l-0.603,-0.79l-1.231,-0.379l-0.682,1.199l-0.445,-0.41l0.236,-1.199l-0.419,0.347l-0.603,-0.283l0.472,1.041l-0.445,0.537l-0.472,-1.105l-0.472,0.221l-0.55,-0.473l-0.419,0.347l-1.022,-0.284l0.446,-0.567l-0.262,-0.537l-0.944,0.221l0.314,-0.852l0.341,-0.254l0.394,0.284l0.654,-0.758l-1.021,-0.313l0.156,-0.38l0.629,0.38l0.393,-0.38l-0.418,-0.379l0.865,-0.316l1.284,1.674l2.542,-0.38l0.786,-0.504l-0.21,1.578l0.708,1.104L66.554,668.835zM94.014,645.225l-0.734,-0.474l0.052,-0.412l0.838,-0.253l-0.472,-1.14l-0.865,-0.317l-0.759,-1.266l-0.787,-0.128l0.183,-0.537l-0.785,-0.602l-0.079,-0.634l-0.917,0.318l0.629,-1.109l-1.441,0.349l-0.158,0.665l-0.838,-0.223l-1.337,-1.52l0.761,-0.664l-0.733,-1.079l-0.997,-0.093V635.6l-3.17,-1.236l-1.598,0.033l-0.289,0.475l0.551,0.349l-0.394,1.648l0.996,0.22v0.317l-1.493,2.913l-0.551,-0.031l-0.288,-0.634l-0.079,1.204l-0.628,-0.19l-0.604,0.603l1.101,1.201l-1.887,0.158l-0.367,1.044l0.734,0.824l-1.127,0.538l-0.498,-0.475l-0.026,-0.696l0.471,-0.887l-0.445,-0.221l-1.572,2.183l0.209,0.381l-0.367,0.79l-2.226,0.791l-0.524,0.759l-2.49,1.33l0.21,0.696l0.733,0.158v0.854l-0.655,-0.569l-1.127,0.443l-1.074,1.044l0.131,0.632l-0.786,1.423l2.698,4.553h0.891l0.393,-0.824l1.049,0.033l0.289,0.791l-1.022,0.44l0.392,0.602l-0.943,1.231h1.651l-0.131,-0.727l0.761,-0.221l0.917,1.611l1.31,-0.222l0.943,0.285l0.105,-0.506l2.541,-0.474l-0.655,-1.264l1.23,0.536l0.918,-0.884l0.603,0.663l0.891,-1.201l1.624,0.128l0.498,-0.603l-0.812,-0.314l0.445,-1.202l1.152,0.095l-0.025,0.696h0.367l1.571,-0.822l-0.812,-0.98l0.891,-0.379l0.104,0.601l0.707,0.096l-0.367,-1.202l1.153,0.854l-0.236,-1.804l1.389,1.74l-0.603,0.157l0.237,0.569l0.366,0.348l0.865,-0.316l-0.026,-1.675l1.179,-0.886l0.498,-1.392l1.126,-0.885l-0.708,-1.645l0.551,-0.823l0.603,-0.032l0.157,-0.822l-1.205,-0.349l0.025,-0.854l1.495,-0.411l0.576,0.854l0.315,-0.41l-0.524,-0.981L94.014,645.225zM52.432,619.112l0.209,-0.506l-1.021,-0.699l0.131,-0.35l0.917,0.19l-1.258,-1.905l0.053,-1.461l1.127,0.064l0.21,-0.478l2.882,0.224l0.183,-0.666l0.629,0.19l0.341,-1.334l1.153,-0.159l0.209,-1.461l-0.472,-1.367l-0.34,-0.094l-0.183,0.445l-0.629,-0.224L56.519,610l-0.813,-0.285l-0.445,0.413l0.052,0.666l-0.682,0.287l0.105,0.539l-1.231,-0.254l0.209,0.635l-1.206,0.73l-1.206,0.254l-0.969,-0.158l-0.053,-0.572l-1.022,-0.126l-0.445,0.316l-0.288,-0.316l-0.157,0.952l0.576,0.253l-0.813,0.383l-0.131,-0.541l-0.393,0.763l0.576,0.698l-0.445,0.128v1.048l0.393,-0.159l-0.707,1.079l0.025,1.175l0.603,-0.159l-0.131,0.665l0.734,0.16l0.314,0.698l1.336,0.443l0.708,-0.19L52.432,619.112zM129.989,666.721l0.472,-0.096l0.471,-0.916l-0.628,-0.758l-1.441,0.031l-0.027,-1.01l-1.126,-1.454l0.026,-0.884l-0.682,-0.41l0.079,-2.813l-1.075,-1.202l-0.655,-0.095l-0.996,-1.199l-1.31,-0.096l-0.42,-0.442l-3.091,1.074l-0.97,0.886l-0.261,0.886l0.576,1.168l-0.367,0.41l0.367,2.021l-0.367,0.632l0.707,0.665l-0.498,0.883l1.965,0.412l0.524,0.915l0.655,0.094l0.445,0.79l-0.339,0.38l1.545,1.419l1.546,-0.599l2.489,1.264l-0.498,-1.77l0.314,-0.314l1.18,1.483l1.231,-0.095l0.76,0.632l0.786,-0.032l-0.471,-0.884l-0.76,-0.379L129.989,666.721zM59.349,621.811l-0.314,-0.604l-0.865,0.159l-1.467,-1.428l-1.258,-0.316l-0.471,-0.73l-0.053,-1.396l-0.446,-0.255l-0.157,1.81l-1.231,-0.063l0.261,1.396l-0.366,0.603l-0.97,-0.57l0.262,-0.604l-2.095,0.444l-0.21,2.951l0.603,1.649l0.733,-0.287l-0.078,-0.57l0.471,0.063l0.289,0.667l-0.34,0.443l0.838,0.508v-0.476l0.733,0.095l0.027,-0.666l0.524,0.031l0.288,0.444l-0.524,0.604l0.13,0.506l0.97,0.317l1.494,-0.666l0.026,-1.078l1.493,-1.015l0.157,-1.047l1.074,0.285l0.132,-1.204H59.349zM122.129,681.326l0.549,-0.724l-1.624,-1.576l-1.729,-0.569l-0.655,1.545l-0.891,-0.094l0.786,0.346l-0.576,0.411l0.576,0.409l0.446,-0.472l0.576,1.355l-1.127,0.945l-0.471,1.261l-0.471,-0.095l-0.236,0.503l0.55,0.475l-0.367,0.63l0.655,0.504l0.052,1.135l1.048,-1.009l0.315,0.221l-0.131,1.607l0.997,0.471l0.89,-1.038l-0.366,-0.663l0.602,-0.566l-0.367,-1.386l0.289,-0.222l0.813,0.6l0.262,-1.071l-0.419,-0.284l-0.891,0.251l-0.052,-1.417l-1.153,-0.378l0.131,-0.852L122.129,681.326zM116.181,676.754l-0.786,-0.408l0.026,-0.601l-1.362,-0.348l-0.76,0.348l-0.628,-0.536l-0.524,0.726l-0.472,-1.388l-1.415,0.063l0.708,0.472l0.053,0.537l0.472,0.063v0.599l-0.891,0.096l-0.263,0.756l0.314,0.222l0.289,-0.537l0.367,0.315l-0.472,0.632l-0.655,0.031l0.551,0.315l-0.604,0.599l0.445,0.347l-0.917,0.41l1.598,0.41l-0.053,1.166l2.568,0.536l-1.336,-1.544l0.314,-0.38l1.677,-0.125l-0.104,0.914l1.624,0.189l0.262,-0.222l-0.236,-0.724l-0.996,-1.198h1.809l0.262,-0.632l-0.577,-0.283L116.181,676.754zM115.63,682.84l-0.367,-0.535l-2.306,-0.411l-0.655,0.441l0.053,0.568l-0.393,-0.252l-0.105,-0.852l-1.389,0.284l-0.027,-0.725l-1.519,-0.884l-1.598,1.292l-0.577,0.032l-0.027,0.567l-1.074,0.599l0.472,0.851l-0.551,0.727l0.524,0.282l-0.524,0.599l0.839,1.954l0.629,-0.441l0.759,0.505l3.301,-1.607l0.394,-1.04l0.969,-0.031l-0.236,-0.504l0.655,-0.41l-0.183,-0.63l0.786,0.156l0.341,-0.756l1.152,2.019l0.054,-1.672l1.231,1.387l0.708,-0.945l-0.237,-0.914L115.63,682.84zM59.873,634.11l-0.445,0.539l0.104,0.728l0.603,0.508l-0.262,1.172l0.97,-0.126l-0.184,-0.855l0.577,0.095l0.158,-0.538l0.603,0.98l0.759,-0.569l0.603,0.539l-0.079,-0.349l0.524,-0.126l-0.184,-0.476l0.55,-0.697l-0.419,-1.109l-0.708,0.634l0.236,-1.996l-1.44,0.444l-0.315,-0.35l0.21,-0.602l-0.472,0.285L61,631.639l0.026,-0.918l0.655,-0.349l0.105,-0.857l-1.048,0.253l0.157,-0.791l-0.471,0.349l-0.943,-0.381l-0.446,0.476l0.603,1.428l-0.55,1.298l0.314,0.57l-0.289,0.667l0.813,-0.444l0.601,0.571l-0.261,0.696L59.873,634.11zM83.926,602.819l-0.341,-1.018l-0.236,1.335l-0.523,0.479l-2.07,-0.383l-0.734,-0.509l-0.471,1.812l1.231,0.096l1.206,0.826l0.865,0.095l1.571,-1.875l1.337,0.064l0.34,0.412l1.467,-0.126l0.368,0.857l0.444,-0.604l0.839,0.031l0.628,0.731l-0.052,0.541l0.708,-0.287l0.104,0.922l-0.472,0.096l-0.235,0.763l-0.996,0.222l0.445,0.668l1.756,0.539l0.183,-0.952l0.314,0.413l1.18,-0.636l-0.445,-1.939l0.786,-0.159l-0.289,-1.589l-1.073,0.446l-0.42,-0.764l0.551,-0.19l-0.104,-0.317l-1.939,-0.096l-1.179,0.413l-0.969,-0.826l1.021,-0.478l-1.074,-0.73l0.367,-0.477l0.786,0.286l0.053,-1.241l0.681,0.541l0.367,-0.731l0.577,-0.159l0.576,0.858l0.209,-0.35l-0.026,-0.986l-1.048,-0.35l-0.393,-0.891l-1.231,-0.287l-0.289,0.542l-0.734,-0.063l-0.654,-1.399l-0.656,-0.255l-1.571,1.049l-0.131,0.319l1.309,0.985l0.892,1.654l-1.023,0.636l-0.654,-0.668l-0.524,0.063l-0.209,1.622l0.707,0.636l-0.289,0.571L83.926,602.819zM69.227,619.843l0.838,-1.334l1.415,-0.126l-0.315,0.729l0.813,0.412l0.131,1.874l0.76,-0.445l1.126,0.571l0.891,-0.697l-0.157,-1.206l0.445,-0.572l-0.628,-2.411l-1.258,-0.795l0.079,-0.856l-1.781,0.667l-0.997,-0.763l-0.708,-1.46l-1.729,0.538l-1.808,-0.92l0.052,0.89l-0.393,0.317h-0.473v-0.571l-0.811,0.284l-0.63,-0.252l0.263,0.412l0.995,0.159l0.446,1.428l-0.708,0.509l-0.394,1.333l0.236,0.285l1.048,-1.079l0.997,-0.126l0.104,1.015l0.655,-0.285l-0.367,1.872l1.179,-0.158l-0.13,0.412L69.227,619.843zM77.009,628.088l-1.52,0.54l-0.183,-0.697l0.498,-0.824l-0.603,-0.73l-0.629,0.127v-0.791l-0.995,-0.065l-0.21,-0.665l-0.603,-0.222l-0.97,0.316l-0.629,1.554l-0.786,-0.57l-0.314,0.952l-1.179,0.095l0.262,1.015l0.996,-0.634l0.576,0.729l-0.445,1.204l-0.603,0.412l0.445,0.604l-0.367,0.76l0.629,0.254l0.786,-0.635l1.258,0.063l-0.053,-0.665l0.524,-0.285h0.97l0.21,0.603l0.498,-0.033l0.629,-1.044l1.52,-0.159l0.368,-0.412L77.009,628.088zM73.733,577.703l-0.471,1.881l0.577,-0.796l0.131,0.7l0.969,-0.287l-0.549,0.765l1.886,0.383l-0.026,-0.478l0.445,-0.128l0.839,1.052l1.78,-0.159l0.97,0.605l-0.419,1.655l0.917,0.191l0.865,1.593l0.838,0.352l0.577,-0.225l0.969,-1.911l-1.152,-0.732l-0.394,-2.421l-1.414,-0.989l-0.052,-1.209l0.55,-1.53l-0.524,-0.64l-1.388,0.894l-0.394,-1.052l-0.734,-0.224l-1.231,0.574l0.105,-0.669l-1.101,-0.574l-0.367,0.351l-0.681,-0.127l-0.315,0.7l-0.838,-0.159l-1.127,0.829l-0.079,1.084L73.733,577.703zM65.768,603.327l-0.629,0.954l-1.572,0.286l1.678,2.542l1.362,1.303l0.523,1.017l-0.156,1.05l2.2,-0.351l0.498,-1.398l-0.917,-1.651l0.681,-0.541l0.105,-0.604l1.126,0.509l1.598,-1.239l-1.022,-1.081l-0.708,-0.031l-0.026,-0.795l0.551,-0.317l1.284,0.38l0.603,-0.793l-0.394,-0.511l-0.445,0.224l-0.551,-1.525l-0.471,0.764l-0.681,-0.604l-0.707,0.126l-0.813,-0.412l-0.577,0.381l0.551,0.795l-0.551,0.444l0.157,0.541l0.891,0.73l-0.498,0.923l-2.123,-0.636l-0.34,-0.636L65.768,603.327zM67.288,587.102l0.708,0.509l1.44,-0.031l0.236,-0.478l0.944,-0.127l0.759,0.445l1.834,-0.031l0.708,-1.146l-0.524,-0.192l0.446,-0.54l-0.367,-0.415l-2.83,-0.987l-0.576,0.033l-0.236,0.986l-0.864,-0.063l-0.655,1.529l-0.55,-0.319L67.288,587.102zM56.44,602.405l-0.524,0.382l0.603,0.191l0.445,-0.35l0.577,0.444l0.366,-0.508l0.97,0.793l0.472,-0.603l1.755,0.571l1.048,1.845l0.367,-0.382l-0.55,-1.399l0.76,-0.222l0.209,0.762l1.44,-0.445l-0.524,-0.57l0.184,-0.224l1.966,0.096l-0.604,-1.431l1.914,-0.922l0.052,-0.572l-1.021,-0.127l-0.471,-0.796l1.518,-1.399l-1.414,-0.224l-0.079,-0.413l0.655,-0.285l0.131,-0.509l-1.231,0.286l-0.315,-0.51l0.42,-0.795l-2.097,-0.859l0.393,2.164l-0.576,0.954l-1.021,0.19l-0.419,-1.112l-0.55,0.031l0.313,0.478l-0.419,0.699l-1.101,0.159l-0.708,-0.509l-0.052,0.954l-0.89,1.622l-0.525,0.35l-0.497,-0.223l0.288,0.764l-0.524,0.729l-0.996,-0.286l-1.125,0.32l-0.027,0.476l1.101,-0.316L56.44,602.405zM62.676,580.221l0.865,-0.382l-0.053,0.894l0.655,0.125l-0.419,-1.369l1.573,-0.256l-0.262,1.147l0.262,0.446l0.811,0.064l0.105,0.382l0.813,-0.127l0.079,0.573l0.549,0.063l-0.051,-0.51h0.471l-0.393,-1.052l1.52,0.097l-0.681,-0.702l-0.131,-0.827l0.603,0.317l0.628,-0.542l-0.157,-0.478l-1.335,-0.51l-0.289,-0.767l0.315,-1.497l0.55,-0.383l0.628,0.352l-0.184,-1.467l0.499,-1.628l0.366,-0.541l1.729,-0.193l0.262,-0.636l1.468,-0.288l-1.284,-0.224l-2.777,0.733l-0.577,-0.285l0.236,0.541l-0.341,0.543l-2.804,2.966l-1.336,0.67l-1.86,-0.098l0.183,1.085l-0.865,1.18l1.572,0.924l-0.315,0.861l-1.677,-0.255v0.541l0.498,-0.159L62.676,580.221zM6.552,622l-0.839,0.381l-0.314,1.015H4.717l-0.654,-0.729l1.283,-1.048l-2.489,0.128l-0.603,0.443l0.053,1.237l-1.075,1.017l-0.026,1.236l-0.97,0.665l0.235,0.73l0.839,0.284l-0.053,0.316l-1.179,0.285l0.943,1.65l1.572,0.568l-0.079,-1.679l0.603,-0.158l0.027,-0.444l0.995,-0.094l-0.55,-1.587h1.231l0.314,-0.285l0.34,-0.19l0.236,-2.061l0.97,-0.509l0.34,0.571l0.55,-0.697l-0.235,-0.762l-0.498,0.063L6.552,622zM144.846,679.94l-0.813,0.504l-0.394,-0.157l0.42,-0.347l0.079,-0.853l-0.787,-0.882l0.787,-0.441l-0.079,-0.758l-1.572,0.031l-0.315,-0.567l-0.68,0.063l-0.289,0.567l-0.891,0.221l-0.183,0.821l-1.179,0.313l0.472,0.442l-0.917,1.103l0.472,0.979l-0.786,-0.158l-0.209,0.504l0.34,0.695l0.445,-0.506l0.367,0.348l-0.996,0.882l0.576,0.189l-0.21,0.505l0.341,0.692l0.314,-1.292l0.865,-0.473l1.179,1.261l-0.079,0.598l1.782,-0.692l0.786,0.599l1.022,-0.913l0.603,-2.522L144.846,679.94zM224.761,599.671l0.865,0.605l0.838,-0.034l-0.131,-3.434l-1.703,-1.686l-2.699,-0.064l0.262,-1.718l-0.786,-0.636l-1.441,1.559l-0.131,0.636l-0.995,0.383l0.053,2.004l5.345,1.208l0.497,0.699l0.157,-1.877l-0.445,-0.285v-0.541l0.942,-0.35l0.789,1.533l0.153,2.377l-1.256,-0.315L224.761,599.671zM224.525,633.731l0.498,0.632l0.997,-0.157l0.891,0.539l1.546,-0.603l0.157,-0.855l-1.86,-1.236l0.393,-0.412l-0.078,-1.743l0.838,-0.348l-0.183,-2.886l0.786,-0.286l-0.052,-0.443l-1.022,0.127l-0.184,-0.507l0.733,-0.223l-0.576,-0.063l-0.235,-0.634l-0.734,0.317l-0.786,-1.237l0.445,-0.698l-0.157,-1.174l-0.445,-0.159l-0.839,0.508l-0.656,-1.077l0.577,-0.761l0.838,0.665l0.445,-0.794l0.184,0.445l-0.472,0.634l0.813,-0.127l0.104,0.443h0.393l-0.235,-1.997l-4.035,-1.969l-0.472,0.032l-0.262,0.604l0.472,0.158l0.472,1.491l1.126,0.159l-0.419,1.776l0.236,0.762l1.441,0.697l-1.782,0.317l-0.524,0.73l0.027,0.729l-1.755,1.459l-0.524,0.032l-0.576,1.426l0.655,0.951l-1.336,1.521l0.89,0.952l1.651,0.221l-0.025,0.762l1.179,1.394L224.525,633.731zM218.474,618.858l-1.31,-1.111l-0.787,-0.158l0.341,-0.667l-0.97,-0.95l-0.786,-0.129l0.052,-0.729l-0.603,0.159l0.183,1.015l-0.786,0.382l-1.047,2.729l-0.419,-0.063l0.708,1.441l-1.546,-0.553v-0.825l-0.34,0.223l-0.079,1.08l-0.262,-0.256l-0.472,0.256l0.052,0.506l1.258,0.763l-0.42,1.015l0.708,0.476l0.681,-0.127l-0.708,0.539l-0.838,-0.19v0.317l0.708,0.35l0.603,1.87l-0.655,0.508l0.628,0.665l0.314,-0.349l0.367,0.191l-0.209,0.791l-0.996,0.666l1.022,0.032l0.419,1.142l-0.813,0.159l-0.235,-0.762l-0.943,0.316l0.184,-0.349l-1.153,-1.269l-2.411,-0.981l-1.206,0.38l0.708,2.188l-0.262,-0.033l-1.441,-2.727l-0.577,-0.57l-0.551,0.063l-0.209,-0.855l0.341,-0.54l0.629,-0.03l0.208,-0.604l-1.1,-0.349l0.053,-1.587l0.629,-0.063l-0.289,-0.285l0.524,-0.413l1.336,0.19l0.158,-0.317l-0.498,-0.285l-0.785,0.222v-0.825l-1.022,0.953l0.366,-1.524l-0.759,0.382l-0.053,-0.286l0.236,-0.73l1.232,-0.539l-0.236,-0.92l0.629,0.475l1.047,-0.569l-0.079,-0.699l0.551,-0.032l-0.131,-0.697l1.913,0.063l-1.101,-0.698l-0.708,0.097l0.629,-0.826l-0.681,-1.334l-0.341,0.89l-0.654,0.189l-0.026,-1.587l-1.285,-0.381l1.206,-0.255l0.157,-0.477l-0.393,0.033l-0.209,-0.921l-0.761,-0.541l-0.131,-1.302l-1.1,-0.35l-0.21,0.54l-0.601,-0.032l-1.207,-0.382l0.184,-1.619l1.153,-0.985l0.445,-1.176l-0.97,0.127l-0.681,-0.382l-0.786,-4.005l-1.231,0.604l-1.31,0.097l0.184,3.051l-0.604,0.763l-1.78,-0.539l-0.525,0.477l-0.995,0.095l-0.158,0.478l-0.655,-0.128l-0.052,-1.398l-0.419,0.031l-0.42,1.367l-3.353,1.334l-1.284,-1.334l-2.332,-0.096l-0.052,0.349l0.76,0.414l1.52,0.414l0.917,1.46l0.524,-0.285l1.65,0.509l0.917,-0.413l0.262,0.222l-1.493,1.303l-1.598,0.699l-0.708,1.08l-0.079,0.92l-1.939,-0.095l0.314,0.317l2.227,0.128l0.891,0.793l-0.393,1.238l-1.651,0.794l-0.733,1.078l1.545,3.396l0.787,0.636l0.393,-0.159l0.523,0.382v0.539l1.573,0.888l0.209,0.952l0.602,0.381l-0.445,0.697l0.838,-0.443l0.996,0.475l-0.235,1.364l1.205,-0.824l-0.053,0.824l0.944,0.095l-0.471,-1.078l1.467,-0.126l-0.026,0.855l-0.419,0.064l0.052,1.078l1.545,0.507l-0.026,0.889l-1.179,-0.666l-0.341,0.823l-0.55,-0.127l-0.367,-0.824l-0.471,0.444l0.838,0.919l2.777,0.603l-0.262,0.698l0.419,0.665l-0.183,0.507l0.864,1.142l-0.026,1.235l-1.704,1.425l-0.052,0.982l-0.55,-0.538l-0.472,-0.126l-0.366,0.569l-1.049,-0.697v-1.204l-0.394,-0.063l-0.052,0.887l-1.179,0.792l-0.996,-0.57V634.3l-1.466,0.634l-0.367,-0.222l0.131,-0.475l-0.682,-0.223l-1.415,0.54l-2.542,0.031l0.052,0.665l2.358,-0.189l0.236,0.95l1.31,-0.793l-0.393,1.363l-0.628,0.569l-1.572,-0.189l-0.183,1.077l1.965,-0.57l1.073,0.444l1.18,-0.065l-0.629,0.569l1.363,-0.314l0.629,0.569l-0.603,0.761l0.419,0.948l-0.63,-0.284l-0.235,0.761l-0.393,-0.033l0.733,1.204l-0.289,0.285l0.184,0.696l-1.257,-0.823l-0.813,-0.064l-0.471,0.634l0.367,0.127l-0.236,0.918h-1.049l-0.367,-0.602l-1.048,0.728l1.126,1.424l-0.236,0.918l-0.288,-0.379l-0.472,0.349l-0.131,-0.444l-0.445,0.855l-0.394,-0.064l-0.209,-0.728l-1.127,-0.57l-0.471,1.614l-0.314,-0.063l0.184,-0.631l-0.499,0.031l-1.074,0.917l-0.577,-0.095l1.127,1.012l-0.367,0.443l-0.838,-0.728l-0.472,0.474l1.232,0.761v0.378l0.445,-0.189l0.261,1.013l-1.125,0.822l-0.996,-0.063l-0.681,-0.917l-0.524,0.127l0.026,-0.633l1.1,0.03l-0.708,-0.979l-0.393,0.441l-0.105,-0.664l-0.682,0.189l0.341,-0.854l-0.812,-0.03l-0.577,-0.76l-1.65,-0.443l0.444,-1.297l0.97,-0.633l-2.751,-2.627l-0.969,0.031l-0.026,0.728l-1.179,-0.379l0.209,-0.792l-1.153,-0.982l-0.656,-0.063l-0.576,-1.044l0.08,2.596l-0.892,-0.475l-0.393,-0.855l-1.127,0.063l-0.105,-0.443l-0.786,0.917l-0.053,0.823l-0.498,-0.664l-2.934,0.35l-1.467,-0.793l0.078,-1.234l-0.943,-0.634l0.471,-1.932l1.126,-1.108l0.577,0.032l-0.183,-0.634l1.101,-0.697l-0.237,-0.664l0.577,-1.205l0.209,0.792l0.734,0.284l1.232,-0.379l-0.367,-0.92l0.419,-0.253v-2.409l2.542,-2.535l2.673,-0.667l0.419,-2.473l1.101,-1.078l-0.708,-0.855l0.314,-0.795l1.153,-0.539l1.074,-1.428l0.681,0.538l0.42,-0.854l0.549,0.063l-0.078,2.251l0.499,0.032l0.078,0.477l-0.733,2.409l0.759,0.794l2.673,0.254l0.654,-1.142l-0.366,-0.824l0.942,-1.047l0.472,-1.903l1.126,-0.35l-0.104,-0.508l-1.048,-0.031l-0.629,-4.158l-1.257,-0.127l-0.786,0.38l-1.127,2.19l-0.446,-0.603l-1.52,-0.635l-0.76,1.143l-0.786,-0.761l-0.942,-2.541l-1.546,0.35l-1.729,2.158l-0.341,2.254l-0.786,1.364l-0.707,0.286l-0.681,1.174l-3.852,0.128l-0.681,-0.983l-0.628,-0.224l-1.363,1.237l-0.445,1.491l-1.127,0.919l-2.935,1.079l-0.419,0.475l0.157,0.699l-0.628,0.284l-0.891,1.49l-0.864,-0.064l-1.887,1.332l-3.327,-0.38l-1.992,0.316l0.839,0.539l0.654,-0.443l1.547,0.158l-0.027,0.952l1.39,0.759l-0.027,0.349l-0.996,0.096l0.131,0.761l-0.577,0.443l-0.209,1.362l-1.074,0.95l0.943,0.696l1.625,-0.316l-0.131,1.488l-0.262,0.286l-0.498,-0.888l-0.838,0.127l0.026,2.471l-1.546,-0.381l-1.153,1.299l0.236,0.729l1.415,1.298l-0.026,0.506h-0.918l-0.366,1.552l1.179,0.822l0.314,1.266l-0.733,0.285l-0.367,-0.317l-0.943,0.854l-1.389,-1.582l-0.576,0.823l0.367,1.581l0.604,0.729l-0.84,1.044l-1.047,-0.032l-0.603,-0.759l-4.717,-0.189l1.521,2.467l-0.158,1.453l-1.205,-1.802l-1.546,-0.506l-1.048,-1.075l-0.629,-0.189l-0.812,0.601l-1.101,-0.063l-1.284,-0.918l0.289,-1.392l-2.043,-0.063l0.078,-0.854l0.943,-0.379l-0.734,-3.134l0.263,-0.379l-0.472,-0.317l0.472,-1.584l-0.105,-1.582l0.683,-0.76h-0.525l-0.131,-0.507l-0.157,-0.887l0.576,-0.824l-0.864,-1.013l0.235,-1.172l-1.021,-0.919l0.367,-0.381l-0.367,-2.408l0.498,-1.584l0.655,-0.604l-0.314,-0.189l-0.681,1.966l-0.865,0.761l-0.603,9.406l0.55,0.635l-0.969,0.253l-0.079,0.412l0.262,2.215l0.419,0.412l-0.656,0.315l0.105,0.54l-0.682,-0.097l-1.31,0.791l0.786,1.551l-2.201,3.29l-0.55,-0.38l-0.839,0.791l-0.969,-0.127l-1.704,1.613l-0.628,-0.191l0.366,0.799l-0.445,0.151l-0.812,-0.822l-0.603,0.695l-0.76,-0.22l-0.524,1.485l-0.969,-0.254l-0.55,1.043l-0.55,-0.569l-0.602,0.791l0.496,0.568l-0.942,1.169l0.287,0.76l0.551,-0.031l-0.053,2.339l-1.703,1.072l0.603,0.507l-0.787,1.011l0.289,0.758l-0.209,1.104l0.445,0.505l-0.813,0.317l-0.996,-0.885l-2.462,-0.284l-1.494,2.21l-1.441,0.253l-0.341,1.01l-0.865,-0.315l0.262,-2.209l-0.655,-0.538l1.388,-1.674l-0.603,-1.138v-1.926l-1.44,-0.633l-0.551,0.728h-0.838l-1.126,1.137l-0.655,0.158l-0.001,-0.632l-0.602,-0.443l-0.079,-0.537l0.393,-0.125l0.917,0.853l0.21,-0.348l-0.42,-0.663l0.97,0.094l-0.838,-0.663l0.368,-0.694l-0.735,-0.127l-0.052,-0.728l2.384,-0.411l-1.127,-1.58l0.289,-0.474l-0.236,-0.38l1.52,0.475l0.157,0.442l1.074,-1.645l-0.734,-1.264l0.498,-0.854l-0.471,-0.696l-1.126,0.917l-0.472,-0.378l-0.813,0.094v0.98l-0.707,-0.222l-0.656,-1.297l-1.258,-0.917l-0.104,-0.38l0.943,-0.474l0.602,0.759l0.524,-0.285l-0.76,-0.727l-0.052,-0.603l0.629,-0.347l-0.418,-0.697l-0.629,0.254l-0.735,-0.949l0.027,-0.569l0.969,-0.157l-0.917,-2.058l1.336,-0.823l-0.786,-1.361l-1.913,-0.157l0.131,-0.569l1.021,-0.191l1.049,-0.919l-0.315,-0.823l-0.97,0.191l-0.078,0.505l-0.995,-0.063l-0.027,-1.583l-2.279,-0.792l0.209,1.204l-1.494,0.252l0.026,0.952l-1.441,0.695l-0.786,-0.792l0.917,-1.107v-1.235l-2.202,-0.095l-2.855,-1.426l-1.992,0.696l-0.943,-1.14l0.865,-1.014l-3.171,-1.173l0.524,-0.982l-0.446,-0.602l0.314,-1.015l-0.288,-0.349l1.231,-1.014l-0.419,-0.57l-0.446,0.633l-1.179,-0.285l-1.179,-1.142l-0.393,-2.789l0.393,-0.635l-0.445,-0.761l0.76,-0.697l-0.446,-1.079l0.289,-1.364l0.576,0.443l0.682,-1.109v-1.747L85,614.955l1.311,-0.54l1.048,0.984l-0.315,0.729l1.258,-0.126l-0.289,0.761l0.917,0.509l0.367,1.968l0.838,0.254l0.918,1.142l0.025,0.635l-1.572,0.667l-0.236,1.935l0.394,0.824l-0.708,0.984l0.209,0.571l2.332,0.855l-0.104,2.884l1.309,0.634l0.262,1.839l0.42,-1.301l0.602,-0.188l2.018,1.363l0.708,-0.191l-0.131,0.666l4.14,2.218l-0.183,-0.887l2.882,-1.457l0.445,-1.142l-0.079,-0.539H103l-0.654,0.634l-0.55,-0.285l-0.812,0.634l-0.446,-2.885h-0.524l-0.655,1.174l-0.812,-2.441l-1.049,0.253l0.499,-1.837l-0.734,-0.064l0.052,-0.824l-0.864,0.031l-0.314,1.235l-0.602,-0.188l-0.787,1.107l-1.075,-0.949l1.646,-1.968l-0.178,-1.871l-0.524,-0.538l0.603,0.094l0.524,0.825l0.472,-0.412l-0.184,-0.761l-0.576,-0.223l0.026,-0.793l-1.048,-0.19l0.052,-0.54l0.655,0.317l0.341,-0.729l1.546,2.126l-0.105,0.888l0.367,0.477l0.943,-1.078l0.577,-0.063l0.131,-0.761L99.438,622l0.55,-0.952l1.127,0.667l-0.158,0.634l-1.31,0.889l-1.1,2.062l1.126,1.269l0.97,-0.381l-0.026,0.889l0.891,0.125l0.733,1.079l3.931,0.506l1.572,1.364l0.997,-1.332l-1.311,-0.381l-0.236,-1.236l0.367,-0.158l2.201,0.223l0.313,0.889l3.25,1.395l3.092,0.284l0.444,-0.443l-0.89,-0.761l-1.913,-0.096l-1.415,-1.395l-1.598,-0.825l-0.367,-1.362l0.602,-1.301l-1.257,-0.381l-1.127,0.253l-1.179,-2.918l-2.672,-3.173l-0.944,-0.382l-1.52,0.127l-0.733,0.191l-0.707,0.92l-0.499,-0.253l-0.236,-1.396l-1.257,0.031l-0.445,0.507l-0.236,-0.666l-0.891,0.253l-0.446,-0.665l-0.655,0.38l-0.053,0.604l-1.1,-0.128l0.184,0.636l-0.786,0.349l-2.333,-0.856l-0.052,-0.477l1.677,-1.079l-0.262,-0.761l0.55,-0.477l-0.498,-0.319l1.153,-0.442l-0.079,-1.335l-1.991,0.128l-0.708,-2.167l0.865,-1.042v-0.794l0.471,-0.667l0.603,0.19l0.184,-0.921l0.341,-0.445l0.393,0.127l0.131,-0.698l0.786,-0.604l1.021,-0.096l-0.707,-0.54l-0.131,-1.971l-0.76,-0.381l0.628,-1.304l-0.733,-0.254l-0.55,-0.097l0.445,-1.239l-0.157,-0.731l0.419,0.254l0.419,-0.254l0.445,-1.272l-1.283,-1.209l-0.184,-0.668l0.655,-0.731l-0.786,-1.21l0.524,-2.228l-1.153,-0.764l-0.105,-1.91l-0.812,-1.336l-0.446,0.571l0.131,2.197l-0.864,0.7l0.079,0.764l0.786,-0.127l0.629,0.732l-0.892,1.432l0.76,0.509l-0.708,0.859l0.394,0.923l-0.236,0.413l-1.52,-0.127l-0.105,0.542l-0.629,0.222l-1.362,-0.159l-0.236,-1.622l-0.943,-0.223l-0.498,0.699l-0.472,-0.222l-0.183,-0.732l0.445,0.19l1.048,-1.241l-1.074,-0.477l-0.236,-0.892l-1.126,-1.146l0.208,-1.178l0.499,-0.096l0.208,-0.892l0.708,-0.382l-0.288,1.401l0.681,0.032l0.262,-0.701l0.812,1.688l1.887,-0.957l0.34,-0.892l0.629,-0.157l-0.027,-0.988l-1.86,-0.414l4.9,-3.152l-0.079,-1.497l-0.891,-1.116l-0.969,0.034l-1.651,0.795l-0.419,-1.02l0.419,-0.444l-0.262,-0.574l-1.651,-0.415l0.813,-0.255l0.445,-0.701l-1.153,-2.168l-1.336,-0.03l-0.132,0.732l-1.363,-0.956l1.206,2.23l-1.363,1.051l1.048,0.288l0.21,0.604l-1.284,1.211l-0.707,-1.719l-0.76,-0.352l-0.787,0.893l-1.284,0.096l0.079,-1.052l-0.682,-1.944l-1.021,-0.669l0.419,-1.276l1.651,-0.128l-2.202,-2.424l0.813,-1.912l0.393,0.479l0.367,-0.169l-0.472,-0.756l0.209,-0.541l1.468,-0.894l0.708,1.913l0.996,-0.223l-0.314,-0.512l0.367,-0.095l1.362,0.414l0.079,1.245l1.284,-0.064l0.917,-1.627l-0.682,-0.446l0.079,-0.32l0.368,-0.383l0.602,0.383l1.075,-1.276l0.052,2.554l-0.786,1.625l0.288,0.191l-0.184,0.512l-0.76,0.223l-0.183,0.893l0.524,0.383l0.053,0.828l-0.524,0.353l1.205,0.224l0.891,-1.021l-0.079,1.625l-0.681,0.446l0.052,0.574l0.367,0.255l0.235,-0.446l0.629,0.605l0.734,-0.573l0.209,1.942l0.419,-0.095l0.76,-2.104l1.048,-0.542l-0.655,2.264l0.472,0.159l0.655,-1.339l0.997,1.529l0.026,0.415l-1.572,1.848l0.97,-0.032l0.104,1.849l2.228,-0.064l-0.603,-0.987l0.025,-0.765l0.42,-0.605l1.677,-0.796l1.441,-2.296l-2.069,-0.954l2.096,-0.67l0.655,-1.18l-1.704,-0.638l-2.358,-0.096l-1.624,-3.158l-1.205,-0.51l-0.812,-1.403l0.026,-0.733l-0.917,-0.129l-0.604,-1.054l-0.654,-0.062l0.289,-1.341l-0.996,-0.479l1.624,-0.543l-0.183,-1.116l0.577,-0.287l0.288,-1.149l-1.782,0.895l-0.026,-0.416l-0.996,-0.224l-1.284,0.607l-0.393,-0.607l-1.179,-0.191l0.184,-0.766l-0.445,-0.958l-0.576,-0.543l-0.787,-0.064v-0.511l1.101,-2.076l0.656,1.533l0.654,0.543l0.026,0.767l0.629,-1.15l0.734,-0.223l-0.551,-0.99l1.599,-2.172l-0.288,-0.704l-1.284,0.448l-0.472,-0.416l0.734,-1.31l3.118,0.032l0.629,-2.365l0.104,-2.91l1.755,-4.444l1.467,0.575l0.682,-0.19l0.942,0.99l1.599,0.191l-0.235,-0.671l-1.048,0.191l-0.315,-0.735l-1.86,-1.151l-0.759,-2.399l0.733,-1.793l-0.289,-0.544l1.468,-1.409l2.227,0.162l0.315,-0.578l1.939,0.182l0,0l1.869,0.622l0,0l1.868,1.557l0.779,2.652l0.155,2.953l1.869,2.181l1.246,4.046h1.708l0.375,1.698l0,0l4.341,-0.232l1.448,-1.54l0.983,-0.353l1.11,0.24l0,0l0.963,0.428l2.07,-0.709l0,0l1.527,-1.492l3.134,-0.962l0,0l2.408,-1.217l0.764,-2.01l-0.141,-0.955l0,0l-0.261,-0.771l0,0l0.152,-0.682l1.448,-0.944l0,0l0.585,-0.674l-0.149,-3.091l0,0l0.183,-1.178l0.609,-0.808l2.262,-0.979l0,0l1.524,0.354l0,0l1.083,0.215l1.564,-1.861l3.018,0.604l2.939,1.855l1.095,1.129l2.517,4.761l0,0l1.033,0.895l0,0l1.968,0.567l1.021,-0.693l0,0l0.138,-1.019l0,0l0.532,-2.077l0.997,-0.641l0.979,-1.783l0.704,-0.317l1.806,0.394l1.347,1.039l0.613,1.9l-0.157,2.503l0,0l-1.146,1.374l0.087,0.934l0.488,0.682l1.587,-0.015l0,0l1.009,2.871l-0.419,3.604l2.586,1.972l0,0l2.093,0.538l0,0l1.607,-0.146l1.42,-0.939l0,0l0.962,-0.897l0,0l1.298,-0.834l3.148,1.353l0,0l1.927,-1.12l1.437,1.37l0,0l1.125,0.654l6.141,-0.02l0,0l2.377,-0.696l3.187,0.363l0,0l1.125,-0.021l0.622,-0.441l2.945,-3.787l1.751,-0.981l0,0l1.992,-0.108l0,0l3.5,1.155l1.033,0.918l0,0l3.297,1.813l3.066,2.64l0,0l-0.783,0.695l-0.016,1.56l2.654,2.981l0.905,9.198l1.296,1.686l2.219,1.127l3.036,3.633l0.193,2.896l0,0l1.09,1.043l0,0l0.766,1.236l1.613,0.686l1.176,1.869l0,0l1.741,1.326l0,0l1.573,4.103l-0.037,2.928l0.695,0.322l0.001,0.864l-1.834,0.286l-0.944,-0.379l-1.362,-2.962l-0.576,-0.031l-0.63,1.145l-1.755,0.542l-0.053,-2.897l-1.415,-2.037l0.079,1.624l0.681,0.542l0.367,3.023l-1.546,1.177l-0.236,0.923l-0.629,-0.191l-0.682,0.892l-0.707,0.063l-0.183,0.478l0.472,0.955l-1.625,1.112l-1.572,0.413l0.21,0.477l-1.153,0.892l-0.944,-1.21l0.446,-0.571l-2.07,0.222l-0.472,-1.304l-1.048,-0.954l0.158,-2.45l-0.708,-0.668l0.288,1.21l-0.419,1.781l-1.152,0.19l-0.315,-0.287l-0.499,0.637l1.154,0.287l1.284,1.59l-0.498,0.795l0.604,1.019l-0.499,0.19l-0.498,-1.019l-0.733,0.701l-0.603,-0.541l-0.577,0.636l1.101,0.128l0.34,0.413l0.079,1.367l1.39,1.366l-0.262,0.414l0.366,0.604l0.367,0.222l0.42,-0.413l0.681,1.019l1.415,-0.159l-0.078,0.763h-0.813l-0.052,0.54l0.235,0.699l0.917,0.73l0.026,-1.112h0.838l1.467,0.794l1.206,-1.303l1.336,-0.476l0.917,-1.526l-0.551,-0.445l0.052,-0.762l0.604,0.921l0.104,-0.381l1.494,0.095l1.572,-0.668l-0.943,0.859l1.756,0.699l-0.13,-0.764l2.305,-0.826l1.336,1.336l-0.838,0.19l0.313,0.856l-0.708,2.318l0.656,0.193l-0.682,0.349l0.131,2.161l-0.891,-0.064l-0.288,1.525l-1.049,1.081l0.76,1.396l-0.34,1.175l0.524,0.382l-0.577,0.412l0.786,0.571l-0.184,0.603l-0.419,0.286l-1.572,-0.286l-0.262,1.111l-2.516,0.952l-0.654,-0.031L218.474,618.858zM154.367,566.929l-2.607,-0.262l-1.018,-4.53l-1.937,-2.335l-1.826,-0.868l-2.433,-0.086l-2.433,0.954l-2,1.044l-1.998,2.085l-1.478,0.087l-2.086,-0.696l-1.478,-1.39l-0.608,-2.172l-2.173,-0.087l-2.085,5.302l-2.346,-0.087l-1.738,2.085l-1.13,4.78l0.435,4.084l7.213,1.042l1.825,2.26l1.912,3.824h3.737l3.389,-1.999h3.823l1.478,-1.042l3.128,0.607l3.389,-2.347l1.39,-1.824l0.782,-1.651l0.087,-2.607l0.869,-1.825v-1.391L154.367,566.929zM203.118,650.224l-1.598,-0.602l0.079,-0.411l-1.494,-1.866l-0.052,1.14l-0.419,0.189l-0.263,-0.602l-0.445,1.012l-0.917,-0.031l0.655,-0.822l-1.676,0.158l-0.524,-0.791l-0.918,-0.568l-0.314,0.189v1.929l0.393,0.633l-0.812,0.476l0.157,0.284l1.074,-0.76l0.524,0.253l0.445,-0.285l0.996,0.603l-0.21,0.632l-1.466,-0.602l-0.394,0.381l1.205,1.265l0.891,-0.506l0.209,0.506h0.576l0.21,0.822l-0.76,0.917l0.053,0.475l0.445,0.221l2.384,-1.202l0.314,-0.505l0.995,0.474l0.76,-0.948l-0.235,-0.695L203.118,650.224zM227.749,644.688l-0.55,0.03l0.026,-0.663l-2.463,-0.855l1.389,-0.063v-0.444l-0.13,-0.634l-1.704,-1.614l0.184,-0.569l-0.734,-1.583l-1.704,0.031l-2.541,1.741l-0.682,-0.316l-0.734,0.191l0.393,0.728l1.101,0.348l0.681,0.697l1.258,-0.412l-0.734,1.171l0.184,0.38l1.311,0.317l-0.734,0.538l0.131,0.349l0.655,0.221l1.179,-0.411l-0.026,0.633l1.65,0.284l-0.209,0.475l-0.656,0.096l0.812,0.381l1.887,0.125l0.131,-0.506L227.749,644.688zM222.534,599.513l-1.494,0.095l-0.943,-0.828l-1.755,0.67l-0.682,1.177l0.944,0.73l-0.472,0.445l1.782,0.095l0.471,0.477l0.917,-1.906l1.573,-0.383L222.534,599.513zM128.836,658.128l0.604,-0.443l2.148,0.127l-0.708,0.79l-0.602,1.802l1.388,0.821l-0.315,-0.506l0.472,-0.633l-0.131,-0.757l1.075,-1.453l1.021,-0.443l1.519,0.347l0.42,-0.536l-0.367,-0.442l0.498,-0.98l1.808,0.507l0.498,0.727l0.445,-0.412l1.101,0.316l0.079,-0.821h-0.708l0.236,-0.411l-0.393,-0.948l-0.812,0.127l0.472,-0.602l-0.262,-0.632l-1.1,0.822l-1.415,-1.013l1.782,-0.095l0.288,-0.979l-0.577,-0.57l-0.55,0.284l-0.08,-1.392l-3.038,1.392l-1.206,-0.158l-2.227,2.561l0.341,1.361l-0.786,0.378l-0.891,1.296L128.836,658.128zM195.939,646.807l-0.105,-0.568l0.813,-0.348l1.441,0.316l0.393,-0.697l0.131,0.697h0.446l1.126,-0.823l-1.388,-1.962l-2.883,-0.223l-0.236,-0.57l0.393,-0.221l1.206,0.38l-0.498,-1.141l-1.074,-0.189l0.053,-0.443l1.388,-0.094l0.445,-0.697l-0.47,-0.918l-1.521,-0.159l-0.445,0.286l-1.782,2.596l0.551,0.538l0.838,-0.158l0.655,0.665l-0.419,0.537l0.655,0.063v0.382l-1.677,1.043l0.812,0.76l0.131,0.792L195.939,646.807zM228.691,650.16l-0.603,-0.412l0.314,-1.011l-1.074,0.569l0.289,0.886l-1.153,2.215l1.493,-0.255l0.026,0.316l-1.125,0.253l-0.367,1.075l0.262,0.538l0.865,-0.475l0.104,0.821l0.707,0.032l-0.288,-0.632l0.498,-0.158l-0.184,-1.328l0.943,-2.909L228.691,650.16zM152.287,662.677l-0.576,0.349l-0.786,-0.57l-1.415,0.222l-1.153,1.359l0.262,2.115l0.55,-0.379l0.262,0.947l0.55,0.315l0.393,-0.6l2.333,-0.885l0.209,-0.885l1.075,-0.22l-0.13,-0.916l-0.604,0.063L152.287,662.677zM138.74,666.056l1.101,-0.505l-0.393,-0.789l0.341,-0.157l0.786,0.946l-0.262,0.505l1.074,-0.029l0.314,-1.58l-0.551,-0.315v-0.443l0.656,-0.348l0.838,0.19l0.104,-1.516l-1.677,0.915l-0.708,-1.452l-1.441,0.41l-0.131,-0.663l-0.681,0.852l-0.55,-0.504l0.078,-0.411l-1.021,-0.694l-1.363,1.294l0.131,1.042l-1.231,0.506l-0.445,0.031l-1.153,-1.452l-1.388,1.263l-1.179,-0.41l-0.995,0.285l0.445,0.473l2.279,0.505l1.205,1.391l1.441,-1.391l1.861,0.128l0.497,0.441l0.131,0.885l0.42,0.094l-0.314,0.822l0.472,0.883l0.838,-0.252L138.74,666.056zM160.173,661.13l0.314,-0.569h-0.916l0.025,-0.475l-0.995,0.128l-0.603,0.852l-1.31,0.285l-0.235,-0.758l0.366,-0.159l-0.393,-0.506l0.314,-0.536l-0.55,-0.063l-0.996,-1.391l-0.21,0.884l-1.153,-0.505l-0.471,0.505l0.629,0.633l-0.183,0.315l-0.368,-0.474l-0.34,0.221l0.419,0.348l-0.419,0.79l-2.122,-0.315l2.122,1.232l0.708,-0.729l1.336,0.854l0.34,0.79l-1.415,0.314l0.812,0.158l0.341,0.506l0.445,0.031l0.367,-0.947l1.231,-0.032l0.13,0.727l-1.572,1.105l0.419,1.831l0.943,-1.862l0.498,0.158l0.21,-1.073l2.017,-0.506l-1.702,-0.284l0.55,-0.884l0.576,0.44l1.311,0.128l0.183,0.6l0.759,0.252l0.473,-0.283l-0.656,-0.632L160.173,661.13zM146.024,656.801l-0.969,-0.474l-0.838,0.41l-0.603,-1.327l-0.655,0.6l-0.472,-0.695l0.131,0.822l-0.288,0.095l-0.996,-1.266l-0.053,0.538l-0.708,0.253l-0.366,-0.316l0.314,-0.568l-0.866,-0.411l-0.314,0.632l0.759,0.633l0.183,0.727l-0.785,2.37l0.68,0.569l1.336,-0.6l0.315,1.611l0.969,0.094l0.813,0.601l0.209,-0.664l0.786,0.38l0.629,-0.505l0.393,-1.169l0.891,0.504l0.918,-0.157l0.209,-0.79l-0.865,-1.169l0.289,-1.2l0.733,-0.917l-0.549,-1.107L146.024,656.801zM176.76,672.652l-1.441,0.316l-0.026,1.167l-0.917,0.095l-0.707,2.776l0.367,-0.283l0.917,0.03l0.184,-0.408l0.366,0.472l1.31,0.38l-0.052,-0.884l-0.76,-0.316l1.1,-0.283l-0.288,-1.104L176.76,672.652zM174.559,647.091l-0.289,-1.106l-1.546,-1.109l-1.389,0.857l-0.393,-0.033l-0.052,-0.475l-1.572,0.222l-1.573,1.266l-1.362,-0.126l-0.549,0.886l-0.576,-0.032l0.025,-0.695l-0.786,0.094l-0.419,-1.424l-0.472,0.443l-0.314,-0.379l-0.157,1.612l-0.681,0.128l-0.42,0.728l-0.549,-0.602l-0.342,0.411l1.258,1.739l-0.655,0.508l0.263,0.442l-0.263,0.442l0.865,0.095l0.027,-0.602l0.733,-0.125l-0.079,1.075l0.813,0.221l0.052,0.696l1.127,0.221l0.523,0.98l0.053,-0.822l0.524,-0.411l1.468,0.285l-0.157,-0.538l0.365,-0.221l1.992,0.568l2.043,0.063l0.838,-0.821l0.445,-2.118L174.559,647.091zM156.61,648.863l-0.97,0.537l-1.1,0.033l0.21,0.506l0.89,0.158l0.341,3.193l0.812,0.791l0.603,-0.316l-0.262,-1.265l0.472,-0.222l0.576,0.475l-0.236,0.822l0.367,1.96l1.021,-1.676l-0.629,-0.506l0.813,-0.253l-0.026,-0.694l-0.917,-2.531l-0.969,-0.823l0.184,0.442l-0.577,0.317L156.61,648.863z"/>
	</g>
</svg>