<?xml version="1.0" encoding="utf-8"?>
<!-- (c) ammap.com | SVG map of South Korea - High -->
<svg xmlns="http://www.w3.org/2000/svg" xmlns:amcharts="http://amcharts.com/ammap" xmlns:xlink="http://www.w3.org/1999/xlink" version="1.1">
	<defs>
		<style type="text/css">
			.land
			{
				fill: #CCCCCC;
				fill-opacity: 1;
				stroke:white;
				stroke-opacity: 1;
				stroke-width:0.5;
			}
		</style>

		<amcharts:ammap projection="mercator" leftLongitude="125.384458" topLatitude="38.612296" rightLongitude="131.873029" bottomLatitude="33.194027"></amcharts:ammap>

		<!-- All areas are listed in the line below. You can use this list in your script. -->
		<!--{id:"KR-11"},{id:"KR-26"},{id:"KR-27"},{id:"KR-28"},{id:"KR-29"},{id:"KR-30"},{id:"KR-31"},{id:"KR-41"},{id:"KR-42"},{id:"KR-43"},{id:"KR-44"},{id:"KR-45"},{id:"KR-46"},{id:"KR-47"},{id:"KR-48"},{id:"KR-49"},{id:"KR-50"}-->

	</defs>
	<g>
		<path id="KR-31" title="Ulsan" class="land" d="M360.327,508.995L362.125,510.462L364.134,510.771L365.103,511.357L365.339,512.182L365.339,512.182L364.915,515.018L364.915,515.018L365.201,515.789L365.931,516.123L365.931,516.123L367.902,516.772L367.902,516.772L369.325,516.531L372.144,514.691L373.257,514.386L373.257,514.386L374.741,514.375L374.741,514.375L379.619,516.104L379.619,516.104L381.377,516.527L381.377,516.527L384.267,516.936L384.961,518.386L384.933,519.764L384.2,519.956L383.808,520.535L384.332,523.677L383.729,524.734L383.678,526.081L383.571,526.433L382.55,526.594L382.575,527.074L383.31,526.689L383.125,528.26L381.921,528.774L381.946,529.062L382.786,528.901L382.917,529.511L381.658,530.118L381.841,530.567L382.786,530.183L383.15,530.823L382.682,530.76L382.13,532.009L381.135,531.593L381.213,531.945L380.218,532.072L380.27,532.585L379.745,533.065L379.327,532.875L379.091,531.399L379.483,530.408L378.854,529.573L378.331,529.511L378.515,528.133L377.701,526.562L375.764,524.444L374.27,523.965L374.27,524.639L375.658,525.12L376.575,526.306L376.497,527.428L377.466,527.684L377.388,528.516L377.807,529.126L377.491,529.573L376.968,529.35L375.947,529.701L375.449,529.255L375.973,529.958L376.941,529.701L377.833,531.272L377.204,531.721L377.073,532.875L376.418,533.098L375.239,534.508L374.558,534.476L374.06,533.355L373.011,532.811L373.693,533.61L373.772,535.819L374.06,536.077L374.924,535.756L374.426,536.749L375.789,536.013L375.371,536.749L375.789,537.613L375.475,537.998L374.453,538.062L374.218,538.829L374.609,539.981L375.317,539.981L375.344,540.558L374.847,540.718L374.558,542.126L373.744,542.478L373.534,543.47L373.641,544.206L374.609,544.493L375.317,545.965L373.824,546.828L373.272,546.284L372.645,546.348L372.147,547.468L371.544,547.437L371.44,548.108L370.941,548.331L370.628,549.419L369.553,549.482L369.29,550.664L368.139,550.537L367.851,549.739L367.307,549.994L367.476,548.487L366.473,546.817L366.473,546.817L365.135,545.479L361.17,545.479L361.126,544.718L361.126,544.718L359.586,542.837L359.586,542.837L356.504,542.629L356.504,542.629L354.279,540.747L350.855,536.773L350.855,536.773L347.603,533.426L345.207,533.218L345.207,533.218L342.469,533.218L340.242,532.171L339.901,527.356L342.126,525.471L342.126,525.471L343.324,524.424L343.324,522.959L341.858,520.538L341.858,520.538L345.771,517.456L345.771,517.456L347.428,517.281L347.428,517.281L348.1,517.412L348.755,516.549L347.404,514.074L347.182,513.014L347.775,512.521L351.921,509.947L355.028,508.929L356.651,509.228L359.236,508.572z"/>
	</g>
</svg>